<?xml version="1.0" encoding="UTF-8"?>
<COLLADA xmlns="http://www.collada.org/2005/11/COLLADASchema" version="1.4.1">
    <asset>
        <contributor>
            <author>VCGLab</author>
            <authoring_tool>VCGLib | MeshLab</authoring_tool>
        </contributor>
        <created>Mon Jan 20 15:36:52 2025 GMT</created>
        <modified>Mon Jan 20 15:36:52 2025 GMT</modified>
        <up_axis>Y_UP</up_axis>
    </asset>
    <library_geometries>
        <geometry id="shape0-lib" name="shape0">
            <mesh>
                <source id="shape0-lib-positions" name="position">
                    <float_array id="shape0-lib-positions-array" count="1410">-0.2 -0.963222 -1.68835 0.2 -0.963222 -1.68835 -0.2 -1.73028 -1.68835 -0.2 -1.73028 -1.68835 0.2 -1.73028 -1.68835 0.2 -1.73028 -1.68835 -0.2 -1.71863 -1.82155 -0.2 -1.71863 -1.82155 0.2 -1.71863 -1.82155 0.2 -1.71863 -1.82155 -0.2 -1.68402 -1.9507 -0.2 -1.68402 -1.9507 0.2 -1.68402 -1.9507 0.2 -1.68402 -1.9507 -0.2 -1.62751 -2.07188 -0.2 -1.62751 -2.07188 0.2 -1.62751 -2.07188 0.2 -1.62751 -2.07188 -0.2 -1.55082 -2.18141 -0.2 -1.55082 -2.18141 0.2 -1.55082 -2.18141 0.2 -1.55082 -2.18141 -0.2 -1.45628 -2.27595 -0.2 -1.45628 -2.27595 0.2 -1.45628 -2.27595 0.2 -1.45628 -2.27595 -0.2 -1.34675 -2.35264 -0.2 -1.34675 -2.35264 0.2 -1.34675 -2.35264 0.2 -1.34675 -2.35264 -0.2 -1.22557 -2.40915 -0.2 -1.22557 -2.40915 0.2 -1.22557 -2.40915 0.2 -1.22557 -2.40915 -0.2 -1.09642 -2.44376 -0.2 -1.09642 -2.44376 0.2 -1.09642 -2.44376 0.2 -1.09642 -2.44376 -0.2 -0.963222 -2.45541 -0.2 -0.963222 -2.45541 0.2 -0.963222 -2.45541 0.2 -0.963222 -2.45541 -0.2 -0.830023 -2.44376 -0.2 -0.830023 -2.44376 0.2 -0.830023 -2.44376 0.2 -0.830023 -2.44376 -0.2 -0.700872 -2.40915 -0.2 -0.700872 -2.40915 0.2 -0.700872 -2.40915 0.2 -0.700872 -2.40915 -0.2 -0.579693 -2.35264 -0.2 -0.579693 -2.35264 0.2 -0.579693 -2.35264 0.2 -0.579693 -2.35264 -0.2 -0.470167 -2.27595 -0.2 -0.470167 -2.27595 0.2 -0.470167 -2.27595 0.2 -0.470167 -2.27595 -0.2 -0.375621 -2.18141 -0.2 -0.375621 -2.18141 0.2 -0.375621 -2.18141 0.2 -0.375621 -2.18141 -0.2 -0.29893 -2.07188 -0.2 -0.29893 -2.07188 0.2 -0.29893 -2.07188 0.2 -0.29893 -2.07188 -0.2 -0.242423 -1.9507 -0.2 -0.242423 -1.9507 0.2 -0.242423 -1.9507 0.2 -0.242423 -1.9507 -0.2 -0.207817 -1.82155 -0.2 -0.207817 -1.82155 0.2 -0.207817 -1.82155 0.2 -0.207817 -1.82155 -0.2 -0.196164 -1.68835 -0.2 -0.196164 -1.68835 0.2 -0.196164 -1.68835 0.2 -0.196164 -1.68835 -0.2 -0.207817 -1.55515 -0.2 -0.207817 -1.55515 0.2 -0.207817 -1.55515 0.2 -0.207817 -1.55515 -0.2 -0.242423 -1.426 -0.2 -0.242423 -1.426 0.2 -0.242423 -1.426 0.2 -0.242423 -1.426 -0.2 -0.29893 -1.30482 -0.2 -0.29893 -1.30482 0.2 -0.29893 -1.30482 0.2 -0.29893 -1.30482 -0.2 -0.375621 -1.1953 -0.2 -0.375621 -1.1953 0.2 -0.375621 -1.1953 0.2 -0.375621 -1.1953 -0.2 -0.470167 -1.10075 -0.2 -0.470167 -1.10075 0.2 -0.470167 -1.10075 0.2 -0.470167 -1.10075 -0.2 -0.579693 -1.02406 -0.2 -0.579693 -1.02406 0.2 -0.579693 -1.02406 0.2 -0.579693 -1.02406 -0.2 -0.700872 -0.967554 -0.2 -0.700872 -0.967554 0.2 -0.700872 -0.967554 0.2 -0.700872 -0.967554 -0.2 -0.830023 -0.932948 -0.2 -0.830023 -0.932948 0.2 -0.830023 -0.932948 0.2 -0.830023 -0.932948 -0.2 -0.963222 -0.921295 -0.2 -0.963222 -0.921295 0.2 -0.963222 -0.921295 0.2 -0.963222 -0.921295 -0.2 -1.09642 -0.932948 -0.2 -1.09642 -0.932948 0.2 -1.09642 -0.932948 0.2 -1.09642 -0.932948 -0.2 -1.22557 -0.967554 -0.2 -1.22557 -0.967554 0.2 -1.22557 -0.967554 0.2 -1.22557 -0.967554 -0.2 -1.34675 -1.02406 -0.2 -1.34675 -1.02406 0.2 -1.34675 -1.02406 0.2 -1.34675 -1.02406 -0.2 -1.45628 -1.10075 -0.2 -1.45628 -1.10075 0.2 -1.45628 -1.10075 0.2 -1.45628 -1.10075 -0.2 -1.55082 -1.1953 -0.2 -1.55082 -1.1953 0.2 -1.55082 -1.1953 0.2 -1.55082 -1.1953 -0.2 -1.62751 -1.30482 -0.2 -1.62751 -1.30482 0.2 -1.62751 -1.30482 0.2 -1.62751 -1.30482 -0.2 -1.68402 -1.426 -0.2 -1.68402 -1.426 0.2 -1.68402 -1.426 0.2 -1.68402 -1.426 -0.2 -1.71863 -1.55515 -0.2 -1.71863 -1.55515 0.2 -1.71863 -1.55515 0.2 -1.71863 -1.55515 -0.092648 -2.88812 -3.25928 -0.092648 -0.972899 -1.25571 0.092648 -2.88812 -3.25928 0.092648 -0.972899 -1.25571 0.092648 -2.33392 -3.78903 0.092648 -0.418704 -1.78547 -0.092648 -2.33392 -3.78903 -0.092648 -0.418704 -1.78547 -0.198288 -3.31316 -3.56523 -0.198288 -2.72191 -2.94671 0.198288 -3.31316 -3.56523 0.198288 -2.72191 -2.94671 0.198288 -2.62041 -4.22743 0.198288 -2.02916 -3.60891 -0.198288 -2.62041 -4.22743 -0.198288 -2.02916 -3.60891 0 0.167974 1.48174 0 0.167974 -2.93196 1.01 0.167974 2.02 1.01 0.167974 2.02 1.01 0.167974 -2.93196 1.01 0.167974 -2.93196 0.960567 -0.144133 2.02 0.960567 -0.144133 2.02 0.960567 -0.144133 -2.93196 0.960567 -0.144133 -2.93196 0.817107 -0.425689 2.02 0.817107 -0.425689 2.02 0.817107 -0.425689 -2.93196 0.817107 -0.425689 -2.93196 0.593663 -0.649133 2.02 0.593663 -0.649133 2.02 0.593663 -0.649133 -2.93196 0.593663 -0.649133 -2.93196 0.312107 -0.792593 2.02 0.312107 -0.792593 2.02 0.312107 -0.792593 -2.93196 0.312107 -0.792593 -2.93196 0 -0.842026 2.02 0 -0.842026 2.02 0 -0.842026 -2.93196 0 -0.842026 -2.93196 -0.312107 -0.792593 2.02 -0.312107 -0.792593 2.02 -0.312107 -0.792593 -2.93196 -0.312107 -0.792593 -2.93196 -0.593663 -0.649133 2.02 -0.593663 -0.649133 2.02 -0.593663 -0.649133 -2.93196 -0.593663 -0.649133 -2.93196 -0.817107 -0.425689 2.02 -0.817107 -0.425689 2.02 -0.817107 -0.425689 -2.93196 -0.817107 -0.425689 -2.93196 -0.960567 -0.144133 2.02 -0.960567 -0.144133 2.02 -0.960567 -0.144133 -2.93196 -0.960567 -0.144133 -2.93196 -1.01 0.167974 2.02 -1.01 0.167974 2.02 -1.01 0.167974 -2.93196 -1.01 0.167974 -2.93196 -0.960567 0.480082 2.02 -0.960567 0.480082 2.02 -0.960567 0.480082 -2.93196 -0.960567 0.480082 -2.93196 -0.817107 0.761638 2.02 -0.817107 0.761638 2.02 -0.817107 0.761638 -2.93196 -0.817107 0.761638 -2.93196 -0.593663 0.985082 2.02 -0.593663 0.985082 2.02 -0.593663 0.985082 -2.93196 -0.593663 0.985082 -2.93196 -0.312107 1.12854 2.02 -0.312107 1.12854 2.02 -0.312107 1.12854 -2.93196 -0.312107 1.12854 -2.93196 0 1.17797 2.02 0 1.17797 2.02 0 1.17797 -2.93196 0 1.17797 -2.93196 0.312107 1.12854 2.02 0.312107 1.12854 2.02 0.312107 1.12854 -2.93196 0.312107 1.12854 -2.93196 0.593663 0.985082 2.02 0.593663 0.985082 2.02 0.593663 0.985082 -2.93196 0.593663 0.985082 -2.93196 0.817107 0.761638 2.02 0.817107 0.761638 2.02 0.817107 0.761638 -2.93196 0.817107 0.761638 -2.93196 0.960567 0.480082 2.02 0.960567 0.480082 2.02 0.960567 0.480082 -2.93196 0.960567 0.480082 -2.93196 0.895777 0.167974 2.02 0.851935 -0.108836 2.02 0.724699 -0.35855 2.02 0.526525 -0.556725 2.02 0.27681 -0.68396 2.02 0 -0.727803 2.02 -0.27681 -0.68396 2.02 -0.526525 -0.556725 2.02 -0.724699 -0.35855 2.02 -0.851935 -0.108836 2.02 -0.895777 0.167974 2.02 -0.851935 0.444785 2.02 -0.724699 0.694499 2.02 -0.526525 0.892674 2.02 -0.27681 1.01991 2.02 0 1.06375 2.02 0.27681 1.01991 2.02 0.526525 0.892674 2.02 0.724699 0.694499 2.02 0.851935 0.444785 2.02 0.857731 0.167974 1.93971 0.81575 -0.097079 1.93971 0.693919 -0.336187 1.93971 0.504162 -0.525944 1.93971 0.265053 -0.647776 1.93971 0 -0.689756 1.93971 -0.265053 -0.647776 1.93971 -0.504162 -0.525944 1.93971 -0.693919 -0.336187 1.93971 -0.81575 -0.097079 1.93971 -0.857731 0.167974 1.93971 -0.81575 0.433028 1.93971 -0.693919 0.672136 1.93971 -0.504162 0.861893 1.93971 -0.265053 0.983725 1.93971 0 1.0257 1.93971 0.265053 0.983725 1.93971 0.504162 0.861893 1.93971 0.693919 0.672136 1.93971 0.81575 0.433028 1.93971 0.857731 0.167974 1.6556 0.81575 -0.097079 1.6556 0.693919 -0.336187 1.6556 0.504162 -0.525944 1.6556 0.265053 -0.647776 1.6556 0 -0.689756 1.6556 -0.265053 -0.647776 1.6556 -0.504162 -0.525944 1.6556 -0.693919 -0.336187 1.6556 -0.81575 -0.097079 1.6556 -0.857731 0.167974 1.6556 -0.81575 0.433028 1.6556 -0.693919 0.672136 1.6556 -0.504162 0.861893 1.6556 -0.265053 0.983725 1.6556 0 1.0257 1.6556 0.265053 0.983725 1.6556 0.504162 0.861893 1.6556 0.693919 0.672136 1.6556 0.81575 0.433028 1.6556 0.677231 0.167974 1.6556 0.644085 -0.041301 1.6556 0.547892 -0.230092 1.6556 0.398067 -0.379917 1.6556 0.209276 -0.476111 1.6556 0 -0.509257 1.6556 -0.209276 -0.476111 1.6556 -0.398067 -0.379917 1.6556 -0.547892 -0.230092 1.6556 -0.644085 -0.041301 1.6556 -0.677231 0.167974 1.6556 -0.644085 0.37725 1.6556 -0.547892 0.566041 1.6556 -0.398067 0.715866 1.6556 -0.209276 0.81206 1.6556 0 0.845206 1.6556 0.209276 0.81206 1.6556 0.398067 0.715866 1.6556 0.547892 0.566041 1.6556 0.644085 0.37725 1.6556 0.677231 0.167974 1.48174 0.644085 -0.041301 1.48174 0.547892 -0.230092 1.48174 0.398067 -0.379917 1.48174 0.209276 -0.476111 1.48174 0 -0.509257 1.48174 -0.209276 -0.476111 1.48174 -0.398067 -0.379917 1.48174 -0.547892 -0.230092 1.48174 -0.644085 -0.041301 1.48174 -0.677231 0.167974 1.48174 -0.644085 0.37725 1.48174 -0.547892 0.566041 1.48174 -0.398067 0.715866 1.48174 -0.209276 0.81206 1.48174 0 0.845206 1.48174 0.209276 0.81206 1.48174 0.398067 0.715866 1.48174 0.547892 0.566041 1.48174 0.644085 0.37725 1.48174 -1.09389 0.678332 2.02 -0.968931 0.6786 -2.93196 -1.08473 0.920432 2.02 -0.96181 0.86677 -2.93196 -0.773103 1.23206 2.02 -0.698796 1.12978 -2.93196 -0.406444 1.41888 2.02 -0.367379 1.29865 -2.93196 0 1.48326 2.02 0 1.35684 -2.93196 0.406444 1.41888 2.02 0.367379 1.29865 -2.93196 0.773103 1.23206 2.02 0.698796 1.12978 -2.93196 1.08473 0.920432 2.02 0.96181 0.86677 -2.93196 1.09389 0.678332 2.02 0.968931 0.6786 -2.93196 -0.960567 0.480082 2.54536 -0.817107 0.761638 2.73254 -0.593663 0.985082 2.8701 -0.312107 1.12854 2.99265 0 1.17797 3.07936 0.312107 1.12854 2.99265 0.593663 0.985082 2.8701 0.817107 0.761638 2.73254 0.960567 0.480082 2.54536 -0.980229 0.676408 2.59096 -0.980878 0.860644 2.60399 -0.71545 1.12331 2.86967 -0.379097 1.29631 3.0146 -0.000209 1.3559 3.11946 0.378397 1.29589 3.01988 0.715401 1.12225 2.88599 0.982202 0.85943 2.60892 0.980183 0.67619 2.59073 1.01 0.167974 -0.497749 0.960567 -0.144133 -0.497749 0.817107 -0.425689 -0.497749 0.593663 -0.649133 -0.497749 0.312107 -0.792593 -0.497749 0 -0.842026 -0.497749 -0.312107 -0.792593 -0.497749 -0.593663 -0.649133 -0.497749 -0.817107 -0.425689 -0.497749 -0.960567 -0.144133 -0.497749 -1.01 0.167974 -0.497749 -0.960567 0.480082 -0.497749 0.960567 0.480082 -0.497749 -1.09389 0.678332 -0.497749 -1.08473 0.920432 -0.497749 -0.773103 1.23206 -0.497749 -0.406444 1.41888 -0.497749 0 1.48326 -0.497749 0.406444 1.41888 -0.497749 0.773103 1.23206 -0.497749 1.08473 0.920432 -0.497749 1.09389 0.678332 -0.497749 1.13642 0.167974 -2.93196 1.0808 -0.183199 -2.93196 0.919383 -0.499996 -2.93196 0.667971 -0.751408 -2.93196 0.351173 -0.912825 -2.93196 0 -0.968445 -2.93196 -0.351173 -0.912825 -2.93196 -0.667971 -0.751408 -2.93196 -0.919383 -0.499996 -2.93196 -1.0808 -0.183199 -2.93196 -1.13642 0.167974 -2.93196 -1.08532 0.474825 2.02 -1.08584 0.487291 -2.93196 1.08532 0.474825 2.02 1.08584 0.487291 -2.93196 -1.09389 0.678332 -2.93196 -1.08473 0.920432 -2.93196 -0.773103 1.23206 -2.93196 -0.406444 1.41888 -2.93196 0 1.48326 -2.93196 0.406444 1.41888 -2.93196 0.773103 1.23206 -2.93196 1.08473 0.920432 -2.93196 1.09389 0.678332 -2.93196 -1.08532 0.474825 2.54536 1.08532 0.474825 2.54536 -1.09389 0.678332 2.55209 -1.08473 0.920432 2.56834 -0.773103 1.23206 2.83473 -0.406444 1.41888 2.97749 0 1.48326 3.07936 0.406444 1.41888 2.98254 0.773103 1.23206 2.84989 1.08473 0.920432 2.57087 1.09389 0.678332 2.55209 1.13642 0.167974 -0.497749 1.0808 -0.183199 -0.497749 0.919383 -0.499996 -0.497749 0.667971 -0.751408 -0.497749 0.351173 -0.912825 -0.497749 0 -0.968445 -0.497749 -0.351173 -0.912825 -0.497749 -0.667971 -0.751408 -0.497749 -0.919383 -0.499996 -0.497749 -1.0808 -0.183199 -0.497749 -1.13642 0.167974 -0.497749 -1.08567 0.483108 -0.497749 1.08567 0.483108 -0.497749 -0.995149 0.516857 2.57494 -0.867746 0.787686 2.7449 -0.632085 1.01712 2.8933 -0.335586 1.16533 3.02622 -9.6e-05 1.21709 3.11957 0.335171 1.16423 3.02748 0.631967 1.01554 2.89506 0.868014 0.786831 2.74581 0.995287 0.516756 2.57515 -1.04805 0.51402 2.58561 1.04805 0.514017 2.58569 -1.05525 0.676189 2.59287 -1.05395 0.893223 2.6082 -0.762481 1.18877 2.869 -0.404649 1.37778 3.01313 -0.000226 1.44224 3.11766 0.404049 1.37801 3.01831 0.762338 1.18865 2.88412 1.05427 0.892694 2.61058 1.0553 0.675939 2.59296</float_array>
                    <technique_common>
                        <accessor count="470" source="#shape0-lib-positions-array" stride="3">
                            <param name="X" type="float"/>
                            <param name="Y" type="float"/>
                            <param name="Z" type="float"/>
                        </accessor>
                    </technique_common>
                </source>
                <source id="shape0-lib-normals" name="normal">
                    <float_array id="shape0-lib-normals-array" count="2100">-1 0 0 -9.1404e-11 -0.996195 -0.087153 -9.1404e-11 -0.996195 -0.087153 1 0 0 -1 0 0 8.89594e-10 -0.965926 -0.25882 8.89594e-10 -0.965926 -0.25882 1 0 0 -1 0 0 -1.00916e-09 -0.906308 -0.422617 -1.00916e-09 -0.906308 -0.422617 1 0 0 -1 0 0 3.23661e-09 -0.819152 -0.573577 3.23661e-09 -0.819152 -0.573577 1 0 0 -1 0 0 2.22053e-09 -0.707107 -0.707106 2.22053e-09 -0.707107 -0.707106 1 0 0 -1 0 0 3.75446e-10 -0.573573 -0.819155 3.75446e-10 -0.573573 -0.819155 1 0 0 -1 0 0 -7.78531e-11 -0.422619 -0.906307 -7.78531e-11 -0.422619 -0.906307 1 0 0 -1 0 0 3.44093e-10 -0.258821 -0.965925 3.44093e-10 -0.258821 -0.965925 1 0 0 -1 0 0 -9.1404e-11 -0.087153 -0.996195 -9.1404e-11 -0.087153 -0.996195 1 0 0 -1 0 0 -5.31946e-10 0.0871523 -0.996195 -5.31946e-10 0.0871523 -0.996195 1 0 0 -1 0 0 -3.44093e-10 0.258821 -0.965925 -3.44093e-10 0.258821 -0.965925 1 0 0 -1 0 0 7.78531e-11 0.422619 -0.906307 7.78531e-11 0.422619 -0.906307 1 0 0 -1 0 0 -2.50099e-10 0.573576 -0.819152 -2.50099e-10 0.573576 -0.819152 1 0 0 -1 0 0 -3.39508e-09 0.707103 -0.70711 -3.39508e-09 0.707103 -0.70711 1 0 0 -1 0 0 1.07473e-09 0.819152 -0.573577 1.07473e-09 0.819152 -0.573577 1 0 0 -1 0 0 1.00916e-09 0.906308 -0.422617 1.00916e-09 0.906308 -0.422617 1 0 0 -1 0 0 -3.11328e-10 0.965926 -0.25882 -3.11328e-10 0.965926 -0.25882 1 0 0 -1 0 0 3.0623e-10 0.996195 -0.0871534 3.0623e-10 0.996195 -0.0871534 1 0 0 -1 0 0 -3.0623e-10 0.996195 0.0871534 -3.0623e-10 0.996195 0.0871534 1 0 0 -1 0 0 3.11328e-10 0.965926 0.25882 3.11328e-10 0.965926 0.25882 1 0 0 -1 0 0 1.01859e-09 0.906308 0.422617 1.01859e-09 0.906308 0.422617 1 0 0 -1 0 0 5.23415e-10 0.819152 0.573577 5.23415e-10 0.819152 0.573577 1 0 0 -1 0 0 4.28221e-09 0.707103 0.707111 4.28221e-09 0.707103 0.707111 1 0 0 -1 0 0 8.18054e-11 0.573577 0.819152 8.18054e-11 0.573577 0.819152 1 0 0 -1 0 0 -1.72844e-10 0.42262 0.906307 -1.72844e-10 0.42262 0.906307 1 0 0 -1 0 0 8.89594e-10 0.25882 0.965926 8.89594e-10 0.25882 0.965926 1 0 0 -1 0 0 3.16557e-10 0.0871528 0.996195 3.16557e-10 0.0871528 0.996195 1 0 0 -1 0 0 3.0623e-10 -0.0871534 0.996195 3.0623e-10 -0.0871534 0.996195 1 0 0 -1 0 0 -8.89594e-10 -0.25882 0.965926 -8.89594e-10 -0.25882 0.965926 1 0 0 -1 0 0 1.72844e-10 -0.42262 0.906307 1.72844e-10 -0.42262 0.906307 1 0 0 -1 0 0 -2.06057e-10 -0.573573 0.819154 -2.06057e-10 -0.573573 0.819154 1 0 0 -1 0 0 -3.10654e-09 -0.707107 0.707107 -3.10654e-09 -0.707107 0.707107 1 0 0 -1 0 0 3.87205e-09 -0.819152 0.573577 3.87205e-09 -0.819152 0.573577 1 0 0 -1 0 0 -1.01859e-09 -0.906308 0.422617 -1.01859e-09 -0.906308 0.422617 1 0 0 -1 0 0 -8.89594e-10 -0.965926 0.25882 -8.89594e-10 -0.965926 0.25882 1 0 0 -1 0 0 9.1404e-11 -0.996195 0.087153 9.1404e-11 -0.996195 0.087153 1 0 0 -7.08786e-08 -0.722864 0.69099 -7.08786e-08 -0.722864 0.69099 1 0 0 1 0 0 8.58285e-08 0.722864 -0.69099 8.58285e-08 0.722864 -0.69099 -1 0 0 -1 0 0 3.46197e-08 0.690989 0.722865 3.46197e-08 0.690989 0.722865 -3.492e-08 -0.690991 -0.722864 -3.492e-08 -0.690991 -0.722864 1.71146e-08 -0.722864 0.69099 1.71146e-08 -0.722864 0.69099 1 0 0 1 0 0 1.71146e-08 0.722864 -0.69099 1.71146e-08 0.722864 -0.69099 -1 0 0 -1 0 0 4.55225e-09 0.690991 0.722864 4.55225e-09 0.690991 0.722864 4.55225e-09 -0.690991 -0.722864 4.55225e-09 -0.690991 -0.722864 0 0 1 0.987688 -0.156435 3.97469e-11 0.987688 -0.156435 3.97469e-11 0 0 -1 0 0 1 0.891007 -0.453991 -2.89731e-10 0.891007 -0.453991 -2.89731e-10 0 0 -1 0 0 1 0.707107 -0.707107 -1.54646e-10 0.707107 -0.707107 -1.54646e-10 0 0 -1 0 0 1 0.453991 -0.891006 -6.35475e-10 0.453991 -0.891006 -6.35475e-10 0 0 -1 0 0 1 0.156435 -0.987688 3.97469e-11 0.156435 -0.987688 3.97469e-11 0 0 -1 0 0 1 -0.156435 -0.987688 -3.97469e-11 -0.156435 -0.987688 -3.97469e-11 0 0 -1 0 0 1 -0.453991 -0.891006 6.35475e-10 -0.453991 -0.891006 6.35475e-10 0 0 -1 0 0 1 -0.707107 -0.707107 1.54646e-10 -0.707107 -0.707107 1.54646e-10 0 0 -1 0 0 1 -0.891007 -0.453991 2.89731e-10 -0.891007 -0.453991 2.89731e-10 0 0 -1 0 0 1 -0.987688 -0.156435 -3.97469e-11 -0.987688 -0.156435 -3.97469e-11 0 0 -1 0 0 1 -0.987688 0.156434 -8.72053e-11 -0.987688 0.156434 -8.72053e-11 0 0 -1 0 0 1 -0.999285 0.0378166 -2.55336e-11 -0.999285 0.0378166 -2.55336e-11 0 0 -1 0 0 1 -0.707106 0.707108 -2.25102e-10 -0.707106 0.707108 -2.25102e-10 0 0 -1 0 0 1 -0.45399 0.891007 1.67402e-09 -0.45399 0.891007 1.67402e-09 0 0 -1 0 0 1 -0.156433 0.987689 1.79178e-10 -0.156433 0.987689 1.79178e-10 0 0 -1 0 0 1 0.156433 0.987689 -1.73233e-10 0.156433 0.987689 -1.73233e-10 0 0 -1 0 0 1 0.45399 0.891007 -1.73147e-09 0.45399 0.891007 -1.73147e-09 0 0 -1 0 0 1 0.707106 0.707108 2.17633e-10 0.707106 0.707108 2.17633e-10 0 0 -1 0 0 1 0.999285 0.0378166 2.55336e-11 0.999285 0.0378166 2.55336e-11 0 0 -1 0 0 1 0.987688 0.156434 8.72053e-11 0.987688 0.156434 8.72053e-11 0 0 -1 0 0 1 0 0 1 0 0 1 0 0 1 0 0 1 0 0 1 0 0 1 0 0 1 0 0 1 0 0 1 0 0 1 0 0 1 0 0 1 0 0 1 0 0 1 0 0 1 0 0 1 0 0 1 0 0 1 0 0 1 0 0 1 0 0 1 0 0 1 0 0 1 0 0 1 0 0 1 0 0 1 0 0 1 0 0 1 0 0 1 0 0 1 0 0 1 0 0 1 0 0 1 0 0 1 0 0 1 0 0 1 0 0 1 0 0 1 0 0 1 -0.894566 0.141686 0.423882 -0.894566 0.141686 0.423882 -0.807 0.411187 0.423883 -0.807 0.411187 0.423883 -0.64044 0.640438 0.423882 -0.64044 0.640438 0.423882 -0.411185 0.807001 0.423883 -0.411185 0.807001 0.423883 -0.141686 0.894566 0.423882 -0.141686 0.894566 0.423882 0.141686 0.894566 0.423882 0.141686 0.894566 0.423882 0.411185 0.807001 0.423883 0.411185 0.807001 0.423883 0.64044 0.640438 0.423882 0.64044 0.640438 0.423882 0.807 0.411187 0.423883 0.807 0.411187 0.423883 0.894566 0.141686 0.423882 0.894566 0.141686 0.423882 0.894567 -0.141685 0.423882 0.894567 -0.141685 0.423882 0.807 -0.411187 0.423883 0.807 -0.411187 0.423883 0.64044 -0.640438 0.423882 0.64044 -0.640438 0.423882 0.411185 -0.807001 0.423883 0.411185 -0.807001 0.423883 0.141686 -0.894566 0.423882 0.141686 -0.894566 0.423882 -0.141686 -0.894566 0.423882 -0.141686 -0.894566 0.423882 -0.411185 -0.807001 0.423883 -0.411185 -0.807001 0.423883 -0.64044 -0.640438 0.423882 -0.64044 -0.640438 0.423882 -0.807 -0.411187 0.423883 -0.807 -0.411187 0.423883 -0.894567 -0.141685 0.423882 -0.894567 -0.141685 0.423882 -0.987688 0.156437 1.76208e-09 -0.987688 0.156437 1.76208e-09 -0.891007 0.453989 5.52984e-10 -0.891007 0.453989 5.52984e-10 -0.707107 0.707107 1.00316e-08 -0.707107 0.707107 1.00316e-08 -0.45399 0.891007 4.84497e-09 -0.45399 0.891007 4.84497e-09 -0.156433 0.987689 -5.44573e-10 -0.156433 0.987689 -5.44573e-10 0.156433 0.987689 5.44573e-10 0.156433 0.987689 5.44573e-10 0.45399 0.891007 -4.84497e-09 0.45399 0.891007 -4.84497e-09 0.707107 0.707107 -1.00316e-08 0.707107 0.707107 -1.00316e-08 0.891007 0.453989 -5.52984e-10 0.891007 0.453989 -5.52984e-10 0.987688 0.156437 -1.76208e-09 0.987688 0.156437 -1.76208e-09 0.987688 -0.156436 -2.21011e-10 0.987688 -0.156436 -2.21011e-10 0.891007 -0.453989 5.52984e-10 0.891007 -0.453989 5.52984e-10 0.707107 -0.707107 1.00316e-08 0.707107 -0.707107 1.00316e-08 0.45399 -0.891007 4.84497e-09 0.45399 -0.891007 4.84497e-09 0.156433 -0.987689 -5.44573e-10 0.156433 -0.987689 -5.44573e-10 -0.156433 -0.987689 5.44573e-10 -0.156433 -0.987689 5.44573e-10 -0.45399 -0.891007 -4.84497e-09 -0.45399 -0.891007 -4.84497e-09 -0.707107 -0.707107 -1.00316e-08 -0.707107 -0.707107 -1.00316e-08 -0.891007 -0.453989 -5.52984e-10 -0.891007 -0.453989 -5.52984e-10 -0.987688 -0.156436 2.21011e-10 -0.987688 -0.156436 2.21011e-10 0 0 1 0 0 1 0 0 1 0 0 1 0 0 1 0 0 1 0 0 1 0 0 1 0 0 1 0 0 1 0 0 1 0 0 1 0 0 1 0 0 1 0 0 1 0 0 1 0 0 1 0 0 1 0 0 1 0 0 1 0 0 1 0 0 1 0 0 1 0 0 1 0 0 1 0 0 1 0 0 1 0 0 1 0 0 1 0 0 1 0 0 1 0 0 1 0 0 1 0 0 1 0 0 1 0 0 1 0 0 1 0 0 1 0 0 1 0 0 1 -0.987688 0.156435 -1.25877e-09 -0.987688 0.156435 -1.25877e-09 -0.891008 0.453987 -5.96972e-09 -0.891008 0.453987 -5.96972e-09 -0.707107 0.707107 -6.96225e-09 -0.707107 0.707107 -6.96225e-09 -0.453991 0.891006 -8.19194e-09 -0.453991 0.891006 -8.19194e-09 -0.156434 0.987688 -4.63998e-10 -0.156434 0.987688 -4.63998e-10 0.156434 0.987688 4.63998e-10 0.156434 0.987688 4.63998e-10 0.453991 0.891006 8.19194e-09 0.453991 0.891006 8.19194e-09 0.707107 0.707107 6.96225e-09 0.707107 0.707107 6.96225e-09 0.891008 0.453987 5.96972e-09 0.891008 0.453987 5.96972e-09 0.987688 0.156435 1.25877e-09 0.987688 0.156435 1.25877e-09 0.987688 -0.156434 -8.47469e-10 0.987688 -0.156434 -8.47469e-10 0.891008 -0.453987 -5.96972e-09 0.891008 -0.453987 -5.96972e-09 0.707107 -0.707107 8.10031e-09 0.707107 -0.707107 8.10031e-09 0.453991 -0.891006 -8.71414e-09 0.453991 -0.891006 -8.71414e-09 0.156434 -0.987688 -4.63998e-10 0.156434 -0.987688 -4.63998e-10 -0.156434 -0.987688 4.63998e-10 -0.156434 -0.987688 4.63998e-10 -0.453991 -0.891006 8.71414e-09 -0.453991 -0.891006 8.71414e-09 -0.707107 -0.707107 -8.10031e-09 -0.707107 -0.707107 -8.10031e-09 -0.891008 -0.453987 5.96972e-09 -0.891008 -0.453987 5.96972e-09 -0.987688 -0.156434 8.47469e-10 -0.987688 -0.156434 8.47469e-10 -0.801318 -0.0172629 0.59799 -0.801318 -0.0172629 0.59799 0 0 -1 0 0 -1 -0.999114 -0.0420938 1.42708e-08 -0.999114 -0.0420938 1.42708e-08 -0.639611 0.00447553 0.768686 -0.639611 0.00447553 0.768686 0 0 -1 0 0 -1 -0.374336 -0.0627271 0.925169 -0.374336 -0.0627271 0.925169 0 0 -1 0 0 -1 -0.267184 -0.00129417 0.963645 -0.267184 -0.00129417 0.963645 0 0 -1 0 0 -1 0.257305 -0.0134741 0.966236 0.257305 -0.0134741 0.966236 0 0 -1 0 0 -1 0.335542 -0.112921 0.935233 0.335542 -0.112921 0.935233 0 0 -1 0 0 -1 0.619819 -0.0453982 0.783431 0.619819 -0.0453982 0.783431 0 0 -1 0 0 -1 0.80017 -0.0284874 0.599097 0.80017 -0.0284874 0.599097 0.999114 -0.0420943 -5.81489e-08 0.999114 -0.0420943 -5.81489e-08 0 0 -1 0 0 -1 0.891006 -0.453991 -2.58496e-09 0.891006 -0.453991 -2.58496e-09 -0.999285 0.0378166 -1.19003e-10 -0.999285 0.0378166 -1.19003e-10 -0.999114 -0.0420939 2.01826e-10 -0.999114 -0.0420939 2.01826e-10 0.707107 -0.707107 1.10443e-09 0.707107 -0.707107 1.10443e-09 -0.707106 0.707108 -8.03987e-10 -0.707106 0.707108 -8.03987e-10 0.453991 -0.891006 -1.75556e-09 0.453991 -0.891006 -1.75556e-09 -0.45399 0.891007 4.75647e-09 -0.45399 0.891007 4.75647e-09 0.156432 -0.987689 6.82193e-10 0.156432 -0.987689 6.82193e-10 -0.156433 0.987689 4.32512e-10 -0.156433 0.987689 4.32512e-10 -0.156432 -0.987689 -6.82193e-10 -0.156432 -0.987689 -6.82193e-10 0.156433 0.987689 -4.31432e-10 0.156433 0.987689 -4.31432e-10 -0.453991 -0.891006 1.75556e-09 -0.453991 -0.891006 1.75556e-09 0.45399 0.891007 -4.70285e-09 0.45399 0.891007 -4.70285e-09 -0.707107 -0.707107 -1.10443e-09 -0.707107 -0.707107 -1.10443e-09 0.707106 0.707108 7.9369e-10 0.707106 0.707108 7.9369e-10 -0.891006 -0.453991 2.58496e-09 -0.891006 -0.453991 2.58496e-09 0.999114 -0.0420939 -2.01826e-10 0.999114 -0.0420939 -2.01826e-10 0.999285 0.0378166 1.18726e-10 0.999285 0.0378166 1.18726e-10 0.987688 -0.156436 3.29663e-11 0.987688 -0.156436 3.29663e-11 0.891007 -0.45399 -3.66674e-10 0.891007 -0.45399 -3.66674e-10 0.707107 -0.707107 -1.78155e-09 0.707107 -0.707107 -1.78155e-09 0.453991 -0.891006 -8.33947e-10 0.453991 -0.891006 -8.33947e-10 0.156434 -0.987688 -1.26489e-10 0.156434 -0.987688 -1.26489e-10 -0.156434 -0.987688 1.26489e-10 -0.156434 -0.987688 1.26489e-10 -0.453991 -0.891006 8.33947e-10 -0.453991 -0.891006 8.33947e-10 -0.707107 -0.707107 1.78155e-09 -0.707107 -0.707107 1.78155e-09 -0.891007 -0.45399 3.66674e-10 -0.891007 -0.45399 3.66674e-10 -0.987688 -0.156436 -3.29663e-11 -0.987688 -0.156436 -3.29663e-11 -0.987486 0.157708 0.000171194 -0.987486 0.157708 0.000171194 -0.999285 0.0378166 -2.64099e-11 -0.999285 0.0378166 -2.64099e-11 -0.707106 0.707108 -2.17633e-10 -0.707106 0.707108 -2.17633e-10 -0.45399 0.891007 1.73147e-09 -0.45399 0.891007 1.73147e-09 -0.156433 0.987689 1.73233e-10 -0.156433 0.987689 1.73233e-10 0.156433 0.987689 -1.79178e-10 0.156433 0.987689 -1.79178e-10 0.45399 0.891007 -1.67402e-09 0.45399 0.891007 -1.67402e-09 0.707106 0.707108 2.25102e-10 0.707106 0.707108 2.25102e-10 0.999285 0.0378166 2.64099e-11 0.999285 0.0378166 2.64099e-11 0.987486 0.157708 0.000171193 0.987486 0.157708 0.000171193 -0.999114 -0.0420943 -5.81548e-08 -0.999114 -0.0420943 -5.81548e-08 0.999114 -0.0420938 1.43451e-08 0.999114 -0.0420938 1.43451e-08 0 0 -1 0 0 -1 0 0 -1 0 0 -1 0 0 -1 0 0 -1 0.00892882 -0.999959 -0.00164548 0.00892882 -0.999959 -0.00164548 0 0 -1 0 0 -1 0.0258336 -0.0705323 0.997175 0.0258336 -0.0705323 0.997175 0.042102 -0.999113 4.76595e-11 0.042102 -0.999113 4.76595e-11 0.099382 -0.0741612 0.992282 0.099382 -0.0741612 0.992282 -0.338414 -0.444581 0.829351 -0.338414 -0.444581 0.829351 -0.316192 -0.14259 0.937918 -0.316192 -0.14259 0.937918 -0.255225 -0.0200917 0.966673 -0.255225 -0.0200917 0.966673 0.243596 -0.0176754 0.969716 0.243596 -0.0176754 0.969716 0.299651 -0.124585 0.945879 0.299651 -0.124585 0.945879 0.368817 -0.438705 0.819459 0.368817 -0.438705 0.819459 -0.100776 -0.0730143 0.992226 -0.100776 -0.0730143 0.992226 -0.042102 -0.999113 -4.76595e-11 -0.042102 -0.999113 -4.76595e-11 -0.00628221 -0.0891447 0.995999 -0.00628221 -0.0891447 0.995999 0 0 1 0 0 1 0 0 -1 0 0 -1 0 0 1 0 0 1 0 0 -1 0 0 -1 0 0 1 0 0 1 0 0 -1 0 0 -1 0 0 1 0 0 1 0 0 -1 0 0 -1 0 0 1 0 0 1 0 0 -1 0 0 -1 0 0 1 0 0 1 0 0 -1 0 0 -1 0 0 1 0 0 1 0 0 -1 0 0 -1 0 0 1 0 0 1 0 0 -1 0 0 -1 0 0 1 0 0 1 0 0 -1 0 0 -1 0 0 1 0 0 1 0 0 -1 0 0 -1 0 0 1 0 0 1 0 0 -1 0 0 -1 0 0 -1 0 0 -1 0 0 -1 0 0 -1 0 0 -1 0 0 -1 0 0 -1 0 0 -1 0 0 -1 0 0 -1 0 0 1 0 0 1 0 0 -1 0 0 -1 0 0 -1 0 0 -1 -0.00892882 -0.999959 -0.00164548 -0.00892882 -0.999959 -0.00164548 0.00953776 -0.546215 0.837591 0.00953776 -0.546215 0.837591 -0.00637196 -0.529265 0.848433 -0.00637196 -0.529265 0.848433 -0.0135274 -0.643508 0.765319 -0.0135274 -0.643508 0.765319 -0.0843783 -0.707888 0.701267 -0.0843783 -0.707888 0.701267 0.0776479 -0.717887 0.691815 0.0776479 -0.717887 0.691815 -0.00796705 -0.666436 0.74552 -0.00796705 -0.666436 0.74552 -0.0167987 -0.547671 0.836525 -0.0167987 -0.547671 0.836525 -0.0210108 -0.551344 0.834014 -0.0210108 -0.551344 0.834014 -0.762467 -0.0271034 0.646459 -0.762467 -0.0271034 0.646459 -0.715344 -0.0574969 0.696403 -0.715344 -0.0574969 0.696403 0.0748344 -0.676297 0.732818 0.0748344 -0.676297 0.732818 -0.754777 0.210177 0.6214 -0.754777 0.210177 0.6214 -0.529333 0.493681 0.68999 -0.529333 0.493681 0.68999 -0.283551 0.638669 0.715333 -0.283551 0.638669 0.715333 0.275114 0.640043 0.717396 0.275114 0.640043 0.717396 0.515284 0.498539 0.697095 0.515284 0.498539 0.697095 0.762792 0.197857 0.61563 0.762792 0.197857 0.61563 -0.07399 -0.678234 0.731112 -0.07399 -0.678234 0.731112 0.716345 -0.0576446 0.695361 0.716345 -0.0576446 0.695361 0.765132 -0.0340126 0.642974 0.765132 -0.0340126 0.642974</float_array>
                    <technique_common>
                        <accessor count="700" source="#shape0-lib-normals-array" stride="3">
                            <param name="X" type="float"/>
                            <param name="Y" type="float"/>
                            <param name="Z" type="float"/>
                        </accessor>
                    </technique_common>
                </source>
                <source id="shape0-lib-map" name="map">
                    <float_array id="shape0-lib-map-array" count="4200">0.007596 0.586824 0 0.5 0.5 0.5 0.027778 0 0.027778 1 0 1 0.027778 0 0 1 0 0 0.992404 0.586824 0.5 0.5 1 0.5 0.030154 0.67101 0.007596 0.586824 0.5 0.5 0.055556 0 0.055556 1 0.027778 1 0.055556 0 0.027778 1 0.027778 0 0.969846 0.67101 0.5 0.5 0.992404 0.586824 0.066987 0.75 0.030154 0.67101 0.5 0.5 0.083333 0 0.083333 1 0.055556 1 0.083333 0 0.055556 1 0.055556 0 0.933013 0.75 0.5 0.5 0.969846 0.67101 0.116978 0.821394 0.066987 0.75 0.5 0.5 0.111111 0 0.111111 1 0.083333 1 0.111111 0 0.083333 1 0.083333 0 0.883022 0.821394 0.5 0.5 0.933013 0.75 0.178606 0.883022 0.116978 0.821394 0.5 0.5 0.138889 0 0.138889 1 0.111111 1 0.138889 0 0.111111 1 0.111111 0 0.821394 0.883022 0.5 0.5 0.883022 0.821394 0.25 0.933013 0.178606 0.883022 0.5 0.5 0.166667 0 0.166667 1 0.138889 1 0.166667 0 0.138889 1 0.138889 0 0.75 0.933013 0.5 0.5 0.821394 0.883022 0.32899 0.969846 0.25 0.933013 0.5 0.5 0.194444 0 0.194444 1 0.166667 1 0.194444 0 0.166667 1 0.166667 0 0.67101 0.969846 0.5 0.5 0.75 0.933013 0.413176 0.992404 0.32899 0.969846 0.5 0.5 0.222222 0 0.222222 1 0.194444 1 0.222222 0 0.194444 1 0.194444 0 0.586824 0.992404 0.5 0.5 0.67101 0.969846 0.5 1 0.413176 0.992404 0.5 0.5 0.25 0 0.25 1 0.222222 1 0.25 0 0.222222 1 0.222222 0 0.5 1 0.5 0.5 0.586824 0.992404 0.586824 0.992404 0.5 1 0.5 0.5 0.277778 0 0.277778 1 0.25 1 0.277778 0 0.25 1 0.25 0 0.413176 0.992404 0.5 0.5 0.5 1 0.67101 0.969846 0.586824 0.992404 0.5 0.5 0.305556 0 0.305556 1 0.277778 1 0.305556 0 0.277778 1 0.277778 0 0.32899 0.969846 0.5 0.5 0.413176 0.992404 0.75 0.933013 0.67101 0.969846 0.5 0.5 0.333333 0 0.333333 1 0.305556 1 0.333333 0 0.305556 1 0.305556 0 0.25 0.933013 0.5 0.5 0.32899 0.969846 0.821394 0.883022 0.75 0.933013 0.5 0.5 0.361111 0 0.361111 1 0.333333 1 0.361111 0 0.333333 1 0.333333 0 0.178606 0.883022 0.5 0.5 0.25 0.933013 0.883022 0.821394 0.821394 0.883022 0.5 0.5 0.388889 0 0.388889 1 0.361111 1 0.388889 0 0.361111 1 0.361111 0 0.116978 0.821394 0.5 0.5 0.178606 0.883022 0.933013 0.75 0.883022 0.821394 0.5 0.5 0.416667 0 0.416667 1 0.388889 1 0.416667 0 0.388889 1 0.388889 0 0.066987 0.75 0.5 0.5 0.116978 0.821394 0.969846 0.67101 0.933013 0.75 0.5 0.5 0.444444 0 0.444444 1 0.416667 1 0.444444 0 0.416667 1 0.416667 0 0.030154 0.67101 0.5 0.5 0.066987 0.75 0.992404 0.586824 0.969846 0.67101 0.5 0.5 0.472222 0 0.472222 1 0.444444 1 0.472222 0 0.444444 1 0.444444 0 0.007596 0.586824 0.5 0.5 0.030154 0.67101 1 0.5 0.992404 0.586824 0.5 0.5 0.5 0 0.5 1 0.472222 1 0.5 0 0.472222 1 0.472222 0 0 0.5 0.5 0.5 0.007596 0.586824 0.992404 0.413176 1 0.5 0.5 0.5 0.527778 0 0.527778 1 0.5 1 0.527778 0 0.5 1 0.5 0 0.007596 0.413176 0.5 0.5 0 0.5 0.969846 0.32899 0.992404 0.413176 0.5 0.5 0.555556 0 0.555556 1 0.527778 1 0.555556 0 0.527778 1 0.527778 0 0.030154 0.32899 0.5 0.5 0.007596 0.413176 0.933013 0.25 0.969846 0.32899 0.5 0.5 0.583333 0 0.583333 1 0.555556 1 0.583333 0 0.555556 1 0.555556 0 0.066987 0.25 0.5 0.5 0.030154 0.32899 0.883022 0.178606 0.933013 0.25 0.5 0.5 0.611111 0 0.611111 1 0.583333 1 0.611111 0 0.583333 1 0.583333 0 0.116978 0.178606 0.5 0.5 0.066987 0.25 0.821394 0.116978 0.883022 0.178606 0.5 0.5 0.638889 0 0.638889 1 0.611111 1 0.638889 0 0.611111 1 0.611111 0 0.178606 0.116978 0.5 0.5 0.116978 0.178606 0.75 0.066987 0.821394 0.116978 0.5 0.5 0.666667 0 0.666667 1 0.638889 1 0.666667 0 0.638889 1 0.638889 0 0.25 0.066987 0.5 0.5 0.178606 0.116978 0.67101 0.030154 0.75 0.066987 0.5 0.5 0.694444 0 0.694444 1 0.666667 1 0.694444 0 0.666667 1 0.666667 0 0.32899 0.030154 0.5 0.5 0.25 0.066987 0.586824 0.007596 0.67101 0.030154 0.5 0.5 0.722222 0 0.722222 1 0.694444 1 0.722222 0 0.694444 1 0.694444 0 0.413176 0.007596 0.5 0.5 0.32899 0.030154 0.5 0 0.586824 0.007596 0.5 0.5 0.75 0 0.75 1 0.722222 1 0.75 0 0.722222 1 0.722222 0 0.5 0 0.5 0.5 0.413176 0.007596 0.413176 0.007596 0.5 0 0.5 0.5 0.777778 0 0.777778 1 0.75 1 0.777778 0 0.75 1 0.75 0 0.586824 0.007596 0.5 0.5 0.5 0 0.32899 0.030154 0.413176 0.007596 0.5 0.5 0.805556 0 0.805556 1 0.777778 1 0.805556 0 0.777778 1 0.777778 0 0.67101 0.030154 0.5 0.5 0.586824 0.007596 0.25 0.066987 0.32899 0.030154 0.5 0.5 0.833333 0 0.833333 1 0.805556 1 0.833333 0 0.805556 1 0.805556 0 0.75 0.066987 0.5 0.5 0.67101 0.030154 0.178606 0.116978 0.25 0.066987 0.5 0.5 0.861111 0 0.861111 1 0.833333 1 0.861111 0 0.833333 1 0.833333 0 0.821394 0.116978 0.5 0.5 0.75 0.066987 0.116978 0.178606 0.178606 0.116978 0.5 0.5 0.888889 0 0.888889 1 0.861111 1 0.888889 0 0.861111 1 0.861111 0 0.883022 0.178606 0.5 0.5 0.821394 0.116978 0.066987 0.25 0.116978 0.178606 0.5 0.5 0.916667 0 0.916667 1 0.888889 1 0.916667 0 0.888889 1 0.888889 0 0.933013 0.25 0.5 0.5 0.883022 0.178606 0.030154 0.32899 0.066987 0.25 0.5 0.5 0.944444 0 0.944444 1 0.916667 1 0.944444 0 0.916667 1 0.916667 0 0.969846 0.32899 0.5 0.5 0.933013 0.25 0.007596 0.413176 0.030154 0.32899 0.5 0.5 0.972222 0 0.972222 1 0.944444 1 0.972222 0 0.944444 1 0.944444 0 0.992404 0.413176 0.5 0.5 0.969846 0.32899 0 0.5 0.007596 0.413176 0.5 0.5 1 0 1 1 0.972222 1 1 0 0.972222 1 0.972222 0 1 0.5 0.5 0.5 0.992404 0.413176 1 0 1 1 0 1 1 0 0 1 0 0 1 0 1 1 0 1 1 0 0 1 0 0 1 0 1 1 0 1 1 0 0 1 0 0 1 0 1 1 0 1 1 0 0 1 0 0 1 0 1 1 0 1 1 0 0 1 0 0 1 0 1 1 0 1 1 0 0 1 0 0 1 0 1 1 0 1 1 0 0 1 0 0 1 0 1 1 0 1 1 0 0 1 0 0 1 0 1 1 0 1 1 0 0 1 0 0 1 0 1 1 0 1 1 0 0 1 0 0 1 0 1 1 0 1 1 0 0 1 0 0 1 0 1 1 0 1 1 0 0 1 0 0 0.158487 0.576136 0.151675 0.533124 0.5 0.5 0.05 0 0.05 0.623205 0 0.623205 0.05 0 0 0.623205 0 0 0.975528 0.654509 0.5 0.5 1 0.5 0.198729 0.677943 0.178959 0.639141 0.5 0.5 0.1 0 0.1 0.623205 0.05 0.623205 0.1 0 0.05 0.623205 0.05 0 0.904508 0.793893 0.5 0.5 0.975528 0.654509 0.268462 0.762331 0.237669 0.731538 0.5 0.5 0.15 0 0.15 0.623205 0.1 0.623205 0.15 0 0.1 0.623205 0.1 0 0.793893 0.904509 0.5 0.5 0.904508 0.793893 0.360859 0.821041 0.322057 0.801271 0.5 0.5 0.2 0 0.2 0.623205 0.15 0.623205 0.2 0 0.15 0.623205 0.15 0 0.654508 0.975528 0.5 0.5 0.793893 0.904509 0.466876 0.848325 0.423864 0.841513 0.5 0.5 0.25 0 0.25 0.623205 0.2 0.623205 0.25 0 0.2 0.623205 0.2 0 0.5 1 0.5 0.5 0.654508 0.975528 0.576136 0.841513 0.533124 0.848325 0.5 0.5 0.3 0 0.3 0.623205 0.25 0.623205 0.3 0 0.25 0.623205 0.25 0 0.345491 0.975528 0.5 0.5 0.5 1 0.677943 0.801271 0.639141 0.821041 0.5 0.5 0.35 0 0.35 0.623205 0.3 0.623205 0.35 0 0.3 0.623205 0.3 0 0.206107 0.904509 0.5 0.5 0.345491 0.975528 0.762331 0.731538 0.731538 0.762331 0.5 0.5 0.4 0 0.4 0.623205 0.35 0.623205 0.4 0 0.35 0.623205 0.35 0 0.095492 0.793893 0.5 0.5 0.206107 0.904509 0.821041 0.639141 0.801271 0.677943 0.5 0.5 0.45 0 0.45 0.623205 0.4 0.623205 0.45 0 0.4 0.623205 0.4 0 0.024472 0.654509 0.5 0.5 0.095492 0.793893 0.848325 0.533124 0.841513 0.576136 0.5 0.5 0.5 0 0.5 0.623205 0.45 0.623205 0.5 0 0.45 0.623205 0.45 0 0 0.5 0.5 0.5 0.024472 0.654509 0.841513 0.423864 0.848325 0.466876 0.5 0.5 0.55 0 0.55 0.623205 0.5 0.623205 0.55 0 0.5 0.623205 0.5 0 0.024472 0.345492 0.5 0.5 0 0.5 0.801271 0.322057 0.821041 0.360859 0.5 0.5 0.6 0 0.6 0.623205 0.55 0.623205 0.6 0 0.55 0.623205 0.55 0 0.095492 0.206107 0.5 0.5 0.024472 0.345492 0.731538 0.237669 0.762331 0.268462 0.5 0.5 0.65 0.623205 0.65 1 0.6 1 0.65 0.623205 0.6 1 0.6 0.623205 0.206107 0.095492 0.5 0.5 0.095492 0.206107 0.639141 0.178959 0.677943 0.198729 0.5 0.5 0.7 0 0.7 0.623205 0.65 0.623205 0.7 0 0.65 0.623205 0.65 0 0.345491 0.024472 0.5 0.5 0.206107 0.095492 0.533124 0.151675 0.576136 0.158487 0.5 0.5 0.75 0.623205 0.75 1 0.7 1 0.75 0.623205 0.7 1 0.7 0.623205 0.5 0 0.5 0.5 0.345491 0.024472 0.423864 0.158487 0.466876 0.151675 0.5 0.5 0.8 0 0.8 0.623205 0.75 0.623205 0.8 0 0.75 0.623205 0.75 0 0.654508 0.024472 0.5 0.5 0.5 0 0.322057 0.198729 0.360859 0.178959 0.5 0.5 0.85 0.623205 0.85 1 0.8 1 0.85 0.623205 0.8 1 0.8 0.623205 0.793893 0.095492 0.5 0.5 0.654508 0.024472 0.237669 0.268462 0.268462 0.237669 0.5 0.5 0.9 0 0.9 0.623205 0.85 0.623205 0.9 0 0.85 0.623205 0.85 0 0.904508 0.206107 0.5 0.5 0.793893 0.095492 0.178959 0.360859 0.198729 0.322057 0.5 0.5 0.95 0 0.95 0.623205 0.9 0.623205 0.95 0 0.9 0.623205 0.9 0 0.975528 0.345492 0.5 0.5 0.904508 0.206107 0.151675 0.466876 0.158487 0.423864 0.5 0.5 1 0 1 0.623205 0.95 0.623205 1 0 0.95 0.623205 0.95 0 1 0.5 0.5 0.5 0.975528 0.345492 0 0.5 0.05203 0.515328 0.069219 0.623852 0 0.5 0.069219 0.623852 0.024472 0.654509 0.024472 0.654509 0.078692 0.653008 0.128575 0.750909 0.024472 0.654509 0.128575 0.750909 0.095492 0.793893 0.095492 0.793893 0.146594 0.775711 0.224289 0.853406 0.095492 0.793893 0.224289 0.853406 0.206107 0.904509 0.206107 0.904509 0.249091 0.871425 0.346992 0.921308 0.206107 0.904509 0.346992 0.921308 0.345491 0.975528 0.345491 0.975528 0.376148 0.930781 0.484672 0.94797 0.345491 0.975528 0.484672 0.94797 0.5 1 0.5 1 0.515328 0.94797 0.623852 0.930781 0.5 1 0.623852 0.930781 0.654508 0.975528 0.654508 0.975528 0.653008 0.921308 0.750909 0.871425 0.654508 0.975528 0.750909 0.871425 0.793893 0.904509 0.793893 0.904509 0.775711 0.853406 0.853406 0.775711 0.793893 0.904509 0.853406 0.775711 0.904508 0.793893 0.904508 0.793893 0.871425 0.750909 0.921308 0.653008 0.904508 0.793893 0.921308 0.653008 0.975528 0.654509 0.975528 0.654509 0.930781 0.623852 0.94797 0.515328 0.975528 0.654509 0.94797 0.515328 1 0.5 1 0.5 0.94797 0.484672 0.930781 0.376148 1 0.5 0.930781 0.376148 0.975528 0.345492 0.975528 0.345492 0.921308 0.346992 0.871425 0.249091 0.975528 0.345492 0.871425 0.249091 0.904508 0.206107 0.904508 0.206107 0.853406 0.224289 0.775711 0.146595 0.904508 0.206107 0.775711 0.146595 0.793893 0.095492 0.793893 0.095492 0.750909 0.128575 0.653008 0.078692 0.793893 0.095492 0.653008 0.078692 0.654508 0.024472 0.654508 0.024472 0.623852 0.069219 0.515328 0.05203 0.654508 0.024472 0.515328 0.05203 0.5 0 0.5 0 0.484672 0.05203 0.376148 0.069219 0.5 0 0.376148 0.069219 0.345491 0.024472 0.345491 0.024472 0.346992 0.078692 0.249091 0.128575 0.345491 0.024472 0.249091 0.128575 0.206107 0.095492 0.206107 0.095492 0.224289 0.146595 0.146594 0.224289 0.206107 0.095492 0.146594 0.224289 0.095492 0.206107 0.095492 0.206107 0.128575 0.249091 0.078692 0.346992 0.095492 0.206107 0.078692 0.346992 0.024472 0.345492 0.024472 0.345492 0.069219 0.376148 0.05203 0.484672 0.024472 0.345492 0.05203 0.484672 0 0.5 0.05203 0.515328 0.069361 0.5188 0.084628 0.615195 0.05203 0.515328 0.084628 0.615195 0.069219 0.623852 0.078692 0.653008 0.096248 0.650955 0.140555 0.737913 0.078692 0.653008 0.140555 0.737913 0.128575 0.750909 0.146594 0.775711 0.162656 0.768333 0.231667 0.837344 0.146594 0.775711 0.231667 0.837344 0.224289 0.853406 0.249091 0.871425 0.262087 0.859445 0.349045 0.903752 0.249091 0.871425 0.349045 0.903752 0.346992 0.921308 0.376148 0.930781 0.384805 0.915372 0.4812 0.930639 0.376148 0.930781 0.4812 0.930639 0.484672 0.94797 0.515328 0.94797 0.5188 0.930639 0.615195 0.915372 0.515328 0.94797 0.615195 0.915372 0.623852 0.930781 0.653008 0.921308 0.650955 0.903752 0.737913 0.859445 0.653008 0.921308 0.737913 0.859445 0.750909 0.871425 0.775711 0.853406 0.768333 0.837344 0.837344 0.768333 0.775711 0.853406 0.837344 0.768333 0.853406 0.775711 0.871425 0.750909 0.859445 0.737913 0.903752 0.650955 0.871425 0.750909 0.903752 0.650955 0.921308 0.653008 0.930781 0.623852 0.915372 0.615195 0.930639 0.5188 0.930781 0.623852 0.930639 0.5188 0.94797 0.515328 0.94797 0.484672 0.930639 0.4812 0.915372 0.384806 0.94797 0.484672 0.915372 0.384806 0.930781 0.376148 0.921308 0.346992 0.903752 0.349045 0.859445 0.262087 0.921308 0.346992 0.859445 0.262087 0.871425 0.249091 0.853406 0.224289 0.837344 0.231667 0.768333 0.162656 0.853406 0.224289 0.768333 0.162656 0.775711 0.146595 0.750909 0.128575 0.737913 0.140555 0.650955 0.096248 0.750909 0.128575 0.650955 0.096248 0.653008 0.078692 0.623852 0.069219 0.615195 0.084628 0.5188 0.069361 0.623852 0.069219 0.5188 0.069361 0.515328 0.05203 0.484672 0.05203 0.4812 0.069361 0.384805 0.084628 0.484672 0.05203 0.384805 0.084628 0.376148 0.069219 0.346992 0.078692 0.349045 0.096248 0.262087 0.140555 0.346992 0.078692 0.262087 0.140555 0.249091 0.128575 0.224289 0.146595 0.231667 0.162656 0.162656 0.231667 0.224289 0.146595 0.162656 0.231667 0.146594 0.224289 0.128575 0.249091 0.140555 0.262087 0.096248 0.349045 0.128575 0.249091 0.096248 0.349045 0.078692 0.346992 0.069219 0.376148 0.084628 0.384806 0.069361 0.4812 0.069219 0.376148 0.069361 0.4812 0.05203 0.484672 0.069361 0.5188 0.069361 0.5188 0.084628 0.615195 0.069361 0.5188 0.084628 0.615195 0.084628 0.615195 0.096248 0.650955 0.096248 0.650955 0.140555 0.737913 0.096248 0.650955 0.140555 0.737913 0.140555 0.737913 0.162656 0.768333 0.162656 0.768333 0.231667 0.837344 0.162656 0.768333 0.231667 0.837344 0.231667 0.837344 0.262087 0.859445 0.262087 0.859445 0.349045 0.903752 0.262087 0.859445 0.349045 0.903752 0.349045 0.903752 0.384805 0.915372 0.384805 0.915372 0.4812 0.930639 0.384805 0.915372 0.4812 0.930639 0.4812 0.930639 0.5188 0.930639 0.5188 0.930639 0.615195 0.915372 0.5188 0.930639 0.615195 0.915372 0.615195 0.915372 0.650955 0.903752 0.650955 0.903752 0.737913 0.859445 0.650955 0.903752 0.737913 0.859445 0.737913 0.859445 0.768333 0.837344 0.768333 0.837344 0.837344 0.768333 0.768333 0.837344 0.837344 0.768333 0.837344 0.768333 0.859445 0.737913 0.859445 0.737913 0.903752 0.650955 0.859445 0.737913 0.903752 0.650955 0.903752 0.650955 0.915372 0.615195 0.915372 0.615195 0.930639 0.5188 0.915372 0.615195 0.930639 0.5188 0.930639 0.5188 0.930639 0.4812 0.930639 0.4812 0.915372 0.384806 0.930639 0.4812 0.915372 0.384806 0.915372 0.384806 0.903752 0.349045 0.903752 0.349045 0.859445 0.262087 0.903752 0.349045 0.859445 0.262087 0.859445 0.262087 0.837344 0.231667 0.837344 0.231667 0.768333 0.162656 0.837344 0.231667 0.768333 0.162656 0.768333 0.162656 0.737913 0.140555 0.737913 0.140555 0.650955 0.096248 0.737913 0.140555 0.650955 0.096248 0.650955 0.096248 0.615195 0.084628 0.615195 0.084628 0.5188 0.069361 0.615195 0.084628 0.5188 0.069361 0.5188 0.069361 0.4812 0.069361 0.4812 0.069361 0.384805 0.084628 0.4812 0.069361 0.384805 0.084628 0.384805 0.084628 0.349045 0.096248 0.349045 0.096248 0.262087 0.140555 0.349045 0.096248 0.262087 0.140555 0.262087 0.140555 0.231667 0.162656 0.231667 0.162656 0.162656 0.231667 0.231667 0.162656 0.162656 0.231667 0.162656 0.231667 0.140555 0.262087 0.140555 0.262087 0.096248 0.349045 0.140555 0.262087 0.096248 0.349045 0.096248 0.349045 0.084628 0.384806 0.084628 0.384806 0.069361 0.4812 0.084628 0.384806 0.069361 0.4812 0.069361 0.4812 0.069361 0.5188 0.151675 0.533124 0.158487 0.576136 0.069361 0.5188 0.158487 0.576136 0.084628 0.615195 0.096248 0.650955 0.178959 0.639141 0.198729 0.677943 0.096248 0.650955 0.198729 0.677943 0.140555 0.737913 0.162656 0.768333 0.237669 0.731538 0.268462 0.762331 0.162656 0.768333 0.268462 0.762331 0.231667 0.837344 0.262087 0.859445 0.322057 0.801271 0.360859 0.821041 0.262087 0.859445 0.360859 0.821041 0.349045 0.903752 0.384805 0.915372 0.423864 0.841513 0.466876 0.848325 0.384805 0.915372 0.466876 0.848325 0.4812 0.930639 0.5188 0.930639 0.533124 0.848325 0.576136 0.841513 0.5188 0.930639 0.576136 0.841513 0.615195 0.915372 0.650955 0.903752 0.639141 0.821041 0.677943 0.801271 0.650955 0.903752 0.677943 0.801271 0.737913 0.859445 0.768333 0.837344 0.731538 0.762331 0.762331 0.731538 0.768333 0.837344 0.762331 0.731538 0.837344 0.768333 0.859445 0.737913 0.801271 0.677943 0.821041 0.639141 0.859445 0.737913 0.821041 0.639141 0.903752 0.650955 0.915372 0.615195 0.841513 0.576136 0.848325 0.533124 0.915372 0.615195 0.848325 0.533124 0.930639 0.5188 0.930639 0.4812 0.848325 0.466876 0.841513 0.423864 0.930639 0.4812 0.841513 0.423864 0.915372 0.384806 0.903752 0.349045 0.821041 0.360859 0.801271 0.322057 0.903752 0.349045 0.801271 0.322057 0.859445 0.262087 0.837344 0.231667 0.762331 0.268462 0.731538 0.237669 0.837344 0.231667 0.731538 0.237669 0.768333 0.162656 0.737913 0.140555 0.677943 0.198729 0.639141 0.178959 0.737913 0.140555 0.639141 0.178959 0.650955 0.096248 0.615195 0.084628 0.576136 0.158487 0.533124 0.151675 0.615195 0.084628 0.533124 0.151675 0.5188 0.069361 0.4812 0.069361 0.466876 0.151675 0.423864 0.158487 0.4812 0.069361 0.423864 0.158487 0.384805 0.084628 0.349045 0.096248 0.360859 0.178959 0.322057 0.198729 0.349045 0.096248 0.322057 0.198729 0.262087 0.140555 0.231667 0.162656 0.268462 0.237669 0.237669 0.268462 0.231667 0.162656 0.237669 0.268462 0.162656 0.231667 0.140555 0.262087 0.198729 0.322057 0.178959 0.360859 0.140555 0.262087 0.178959 0.360859 0.096248 0.349045 0.084628 0.384806 0.158487 0.423864 0.151675 0.466876 0.084628 0.384806 0.151675 0.466876 0.069361 0.4812 0.151675 0.533124 0.151675 0.533124 0.158487 0.576136 0.151675 0.533124 0.158487 0.576136 0.158487 0.576136 0.178959 0.639141 0.178959 0.639141 0.198729 0.677943 0.178959 0.639141 0.198729 0.677943 0.198729 0.677943 0.237669 0.731538 0.237669 0.731538 0.268462 0.762331 0.237669 0.731538 0.268462 0.762331 0.268462 0.762331 0.322057 0.801271 0.322057 0.801271 0.360859 0.821041 0.322057 0.801271 0.360859 0.821041 0.360859 0.821041 0.423864 0.841513 0.423864 0.841513 0.466876 0.848325 0.423864 0.841513 0.466876 0.848325 0.466876 0.848325 0.533124 0.848325 0.533124 0.848325 0.576136 0.841513 0.533124 0.848325 0.576136 0.841513 0.576136 0.841513 0.639141 0.821041 0.639141 0.821041 0.677943 0.801271 0.639141 0.821041 0.677943 0.801271 0.677943 0.801271 0.731538 0.762331 0.731538 0.762331 0.762331 0.731538 0.731538 0.762331 0.762331 0.731538 0.762331 0.731538 0.801271 0.677943 0.801271 0.677943 0.821041 0.639141 0.801271 0.677943 0.821041 0.639141 0.821041 0.639141 0.841513 0.576136 0.841513 0.576136 0.848325 0.533124 0.841513 0.576136 0.848325 0.533124 0.848325 0.533124 0.848325 0.466876 0.848325 0.466876 0.841513 0.423864 0.848325 0.466876 0.841513 0.423864 0.841513 0.423864 0.821041 0.360859 0.821041 0.360859 0.801271 0.322057 0.821041 0.360859 0.801271 0.322057 0.801271 0.322057 0.762331 0.268462 0.762331 0.268462 0.731538 0.237669 0.762331 0.268462 0.731538 0.237669 0.731538 0.237669 0.677943 0.198729 0.677943 0.198729 0.639141 0.178959 0.677943 0.198729 0.639141 0.178959 0.639141 0.178959 0.576136 0.158487 0.576136 0.158487 0.533124 0.151675 0.576136 0.158487 0.533124 0.151675 0.533124 0.151675 0.466876 0.151675 0.466876 0.151675 0.423864 0.158487 0.466876 0.151675 0.423864 0.158487 0.423864 0.158487 0.360859 0.178959 0.360859 0.178959 0.322057 0.198729 0.360859 0.178959 0.322057 0.198729 0.322057 0.198729 0.268462 0.237669 0.268462 0.237669 0.237669 0.268462 0.268462 0.237669 0.237669 0.268462 0.237669 0.268462 0.198729 0.322057 0.198729 0.322057 0.178959 0.360859 0.198729 0.322057 0.178959 0.360859 0.178959 0.360859 0.158487 0.423864 0.158487 0.423864 0.151675 0.466876 0.158487 0.423864 0.151675 0.466876 0.151675 0.466876 0.553568 0 0.597863 0 0.6 0 0.553568 0 0.6 0 0.55 0 0.55 1 0.55 1 0.6 1 0.55 1 0.6 1 0.6 1 0.55 0.623205 0.55 0 0.55 0 0.55 0.623205 0.55 0 0.55 0.623205 0.648495 0 0.65 0 0.6 0 0.648495 0 0.6 0 0.602467 0 0.6 1 0.6 1 0.65 1 0.6 1 0.65 1 0.65 1 0.698381 0 0.7 0 0.65 0 0.698381 0 0.65 0 0.651868 0 0.65 1 0.65 1 0.7 1 0.65 1 0.7 1 0.7 1 0.748246 0 0.75 0 0.7 0 0.748246 0 0.7 0 0.701848 0 0.7 1 0.7 1 0.75 1 0.7 1 0.75 1 0.75 1 0.798173 0 0.8 0 0.75 0 0.798173 0 0.75 0 0.75178 0 0.75 1 0.75 1 0.8 1 0.75 1 0.8 1 0.8 1 0.848195 0 0.85 0 0.8 0 0.848195 0 0.8 0 0.801638 0 0.8 1 0.8 1 0.85 1 0.8 1 0.85 1 0.85 1 0.897607 0 0.9 0 0.85 0 0.897607 0 0.85 0 0.851498 0 0.85 1 0.85 1 0.9 1 0.85 1 0.9 1 0.9 1 0.946437 0 0.95 0 0.9 0 0.946437 0 0.9 0 0.902111 0 0.95 0.623205 0.95 1 0.95 1 0.95 0.623205 0.95 1 0.95 0.623205 0.9 1 0.9 1 0.95 1 0.9 1 0.95 1 0.95 1 0.6 0 0.6 0 0.55 0 0.6 0 0.55 0 0.55 0 0.55 0 0.55 0 0.6 0 0.55 0 0.6 0 0.6 0 0.55 0 0.55 0 0.55 0 0.55 0 0.55 0 0.55 0 0.65 0 0.65 0 0.6 0 0.65 0 0.6 0 0.6 0 0.6 0 0.6 0 0.65 0 0.6 0 0.65 0 0.65 0 0.7 0 0.7 0 0.65 0 0.7 0 0.65 0 0.65 0 0.65 0 0.65 0 0.7 0 0.65 0 0.7 0 0.7 0 0.75 0 0.75 0 0.7 0 0.75 0 0.7 0 0.7 0 0.7 0 0.7 0 0.75 0 0.7 0 0.75 0 0.75 0 0.8 0 0.8 0 0.75 0 0.8 0 0.75 0 0.75 0 0.75 0 0.75 0 0.8 0 0.75 0 0.8 0 0.8 0 0.85 0 0.85 0 0.8 0 0.85 0 0.8 0 0.8 0 0.8 0 0.8 0 0.85 0 0.8 0 0.85 0 0.85 0 0.9 0 0.9 0 0.85 0 0.9 0 0.85 0 0.85 0 0.85 0 0.85 0 0.9 0 0.85 0 0.9 0 0.9 0 0.95 0 0.95 0 0.9 0 0.95 0 0.9 0 0.9 0 0.95 0 0.95 0 0.95 0 0.95 0 0.95 0 0.95 0 0.9 0 0.9 0 0.95 0 0.9 0 0.95 0 0.95 0 0.05 0.623205 0.05 1 0 1 0.05 0.623205 0 1 0 0.623205 0.1 0.623205 0.1 1 0.05 1 0.1 0.623205 0.05 1 0.05 0.623205 0.15 0.623205 0.15 1 0.1 1 0.15 0.623205 0.1 1 0.1 0.623205 0.2 0.623205 0.2 1 0.15 1 0.2 0.623205 0.15 1 0.15 0.623205 0.25 0.623205 0.25 1 0.2 1 0.25 0.623205 0.2 1 0.2 0.623205 0.3 0.623205 0.3 1 0.25 1 0.3 0.623205 0.25 1 0.25 0.623205 0.35 0.623205 0.35 1 0.3 1 0.35 0.623205 0.3 1 0.3 0.623205 0.4 0.623205 0.4 1 0.35 1 0.4 0.623205 0.35 1 0.35 0.623205 0.45 0.623205 0.45 1 0.4 1 0.45 0.623205 0.4 1 0.4 0.623205 0.5 0.623205 0.5 1 0.45 1 0.5 0.623205 0.45 1 0.45 0.623205 0.55 0.623205 0.55 1 0.5 1 0.55 0.623205 0.5 1 0.5 0.623205 0.6 0.623205 0.6 1 0.55 1 0.6 0.623205 0.55 1 0.55 0.623205 0.6 0.623205 0.6 0 0.65 0 0.6 0.623205 0.65 0 0.65 0.623205 0.7 0.623205 0.7 1 0.65 1 0.7 0.623205 0.65 1 0.65 0.623205 0.7 0.623205 0.7 0 0.75 0 0.7 0.623205 0.75 0 0.75 0.623205 0.8 0.623205 0.8 1 0.75 1 0.8 0.623205 0.75 1 0.75 0.623205 0.8 0.623205 0.8 0 0.85 0 0.8 0.623205 0.85 0 0.85 0.623205 0.9 0.623205 0.9 1 0.85 1 0.9 0.623205 0.85 1 0.85 0.623205 0.95 0.623205 0.95 1 0.9 1 0.95 0.623205 0.9 1 0.9 0.623205 1 0.623205 1 1 0.95 1 1 0.623205 0.95 1 0.95 0.623205 0.55 0.623205 0.55 1 0.55 1 0.55 0.623205 0.55 1 0.55 0.623205 0.95 0.623205 0.95 0 0.95 0 0.95 0.623205 0.95 0 0.95 0.623205 0.6 1 0.6 1 0.65 1 0.6 1 0.65 1 0.65 1 0.7 1 0.7 1 0.75 1 0.7 1 0.75 1 0.75 1 0.8 1 0.8 1 0.85 1 0.8 1 0.85 1 0.85 1 0.55 0 0.55 0 0.55 0.623205 0.55 0 0.55 0.623205 0.55 0.623205 0.95 1 0.95 1 0.95 1 0.95 1 0.95 1 0.95 1 0.6 0 0.594844 0 0.554043 0 0.6 0 0.554043 0 0.55 0 0.55 0 0.55 0 0.55 0 0.55 0 0.55 0 0.55 0 0.55 0 0.55 0 0.55 0 0.55 0 0.55 0 0.55 0 0.65 0 0.648586 0 0.602085 0 0.65 0 0.602085 0 0.6 0 0.7 0 0.698188 0 0.651804 0 0.7 0 0.651804 0 0.65 0 0.75 0 0.74806 0 0.701896 0 0.75 0 0.701896 0 0.7 0 0.8 0 0.798095 0 0.75195 0 0.8 0 0.75195 0 0.75 0 0.85 0 0.848167 0 0.801835 0 0.85 0 0.801835 0 0.8 0 0.9 0 0.897958 0 0.851384 0 0.9 0 0.851384 0 0.85 0 0.95 0 0.95 0 0.95 0 0.95 0 0.95 0 0.95 0 0.95 0 0.95 0 0.95 0 0.95 0 0.95 0 0.95 0 0.95 0 0.945961 0 0.905142 0 0.95 0 0.905142 0 0.9 0 0.05 0.623205 0.05 0.623205 0 0.623205 0.05 0.623205 0 0.623205 0 0.623205 0 1 0 1 0.05 1 0 1 0.05 1 0.05 1 0.1 0.623205 0.1 0.623205 0.05 0.623205 0.1 0.623205 0.05 0.623205 0.05 0.623205 0.05 1 0.05 1 0.1 1 0.05 1 0.1 1 0.1 1 0.15 0.623205 0.15 0.623205 0.1 0.623205 0.15 0.623205 0.1 0.623205 0.1 0.623205 0.1 1 0.1 1 0.15 1 0.1 1 0.15 1 0.15 1 0.2 0.623205 0.2 0.623205 0.15 0.623205 0.2 0.623205 0.15 0.623205 0.15 0.623205 0.15 1 0.15 1 0.2 1 0.15 1 0.2 1 0.2 1 0.25 0.623205 0.25 0.623205 0.2 0.623205 0.25 0.623205 0.2 0.623205 0.2 0.623205 0.2 1 0.2 1 0.25 1 0.2 1 0.25 1 0.25 1 0.3 0.623205 0.3 0.623205 0.25 0.623205 0.3 0.623205 0.25 0.623205 0.25 0.623205 0.25 1 0.25 1 0.3 1 0.25 1 0.3 1 0.3 1 0.35 0.623205 0.35 0.623205 0.3 0.623205 0.35 0.623205 0.3 0.623205 0.3 0.623205 0.3 1 0.3 1 0.35 1 0.3 1 0.35 1 0.35 1 0.4 0.623205 0.4 0.623205 0.35 0.623205 0.4 0.623205 0.35 0.623205 0.35 0.623205 0.35 1 0.35 1 0.4 1 0.35 1 0.4 1 0.4 1 0.45 0.623205 0.45 0.623205 0.4 0.623205 0.45 0.623205 0.4 0.623205 0.4 0.623205 0.4 1 0.4 1 0.45 1 0.4 1 0.45 1 0.45 1 0.5 0.623205 0.5 0.623205 0.45 0.623205 0.5 0.623205 0.45 0.623205 0.45 0.623205 0.45 1 0.45 1 0.5 1 0.45 1 0.5 1 0.5 1 0.55 0.623205 0.55 0.623205 0.5 0.623205 0.55 0.623205 0.5 0.623205 0.5 0.623205 0.5 1 0.5 1 0.55 1 0.5 1 0.55 1 0.55 1 0.55 1 0.55 1 0.6 1 0.55 1 0.6 1 0.6 1 0.65 1 0.65 1 0.7 1 0.65 1 0.7 1 0.7 1 0.75 1 0.75 1 0.8 1 0.75 1 0.8 1 0.8 1 0.85 1 0.85 1 0.9 1 0.85 1 0.9 1 0.9 1 0.9 1 0.9 1 0.95 1 0.9 1 0.95 1 0.95 1 1 0.623205 1 0.623205 0.95 0.623205 1 0.623205 0.95 0.623205 0.95 0.623205 0.95 1 0.95 1 1 1 0.95 1 1 1 1 1 0.55 1 0.55 1 0.55 1 0.55 1 0.55 1 0.55 1 0.95 0.623205 0.95 0.623205 0.95 0 0.95 0.623205 0.95 0 0.95 0 0.6 0 0.597863 0 0.553568 0 0.6 0 0.553568 0 0.55 0 0.65 0 0.648495 0 0.602467 0 0.65 0 0.602467 0 0.6 0 0.7 0 0.698381 0 0.651868 0 0.7 0 0.651868 0 0.65 0 0.75 0 0.748246 0 0.701848 0 0.75 0 0.701848 0 0.7 0 0.8 0 0.798173 0 0.75178 0 0.8 0 0.75178 0 0.75 0 0.85 0 0.848195 0 0.801638 0 0.85 0 0.801638 0 0.8 0 0.9 0 0.897607 0 0.851498 0 0.9 0 0.851498 0 0.85 0 0.95 0 0.946437 0 0.902111 0 0.95 0 0.902111 0 0.9 0 0.55 0 0.554043 0 0.594844 0 0.55 0 0.594844 0 0.6 0 0.55 0 0.55 0 0.55 0 0.55 0 0.55 0 0.55 0 0.55 0 0.55 0 0.55 0 0.55 0 0.55 0 0.55 0 0.6 0 0.602085 0 0.648586 0 0.6 0 0.648586 0 0.65 0 0.65 0 0.651804 0 0.698188 0 0.65 0 0.698188 0 0.7 0 0.7 0 0.701896 0 0.74806 0 0.7 0 0.74806 0 0.75 0 0.75 0 0.75195 0 0.798095 0 0.75 0 0.798095 0 0.8 0 0.8 0 0.801835 0 0.848167 0 0.8 0 0.848167 0 0.85 0 0.85 0 0.851384 0 0.897958 0 0.85 0 0.897958 0 0.9 0 0.95 0 0.95 0 0.95 0 0.95 0 0.95 0 0.95 0 0.95 0 0.95 0 0.95 0 0.95 0 0.95 0 0.95 0 0.9 0 0.905142 0 0.945961 0 0.9 0 0.945961 0 0.95 0</float_array>
                    <technique_common>
                        <accessor count="2100" source="#shape0-lib-map-array" stride="2">
                            <param name="U" type="float"/>
                            <param name="V" type="float"/>
                        </accessor>
                    </technique_common>
                </source>
                <vertices id="shape0-lib-vertices">
                    <input semantic="POSITION" source="#shape0-lib-positions"/>
                </vertices>
                <triangles count="700">
                    <input offset="0" semantic="VERTEX" source="#shape0-lib-vertices"/>
                    <input offset="1" semantic="NORMAL" source="#shape0-lib-normals"/>
                    <input offset="2" semantic="TEXCOORD" source="#shape0-lib-map"/>
                    <p>6 0 0 2 0 1 0 0 2 7 1 3 8 1 4 4 1 5 7 2 6 4 2 7 3 2 8 9 3 9 1 3 10 5 3 11 10 4 12 6 4 13 0 4 14 11 5 15 12 5 16 8 5 17 11 6 18 8 6 19 7 6 20 13 7 21 1 7 22 9 7 23 14 8 24 10 8 25 0 8 26 15 9 27 16 9 28 12 9 29 15 10 30 12 10 31 11 10 32 17 11 33 1 11 34 13 11 35 18 12 36 14 12 37 0 12 38 19 13 39 20 13 40 16 13 41 19 14 42 16 14 43 15 14 44 21 15 45 1 15 46 17 15 47 22 16 48 18 16 49 0 16 50 23 17 51 24 17 52 20 17 53 23 18 54 20 18 55 19 18 56 25 19 57 1 19 58 21 19 59 26 20 60 22 20 61 0 20 62 27 21 63 28 21 64 24 21 65 27 22 66 24 22 67 23 22 68 29 23 69 1 23 70 25 23 71 30 24 72 26 24 73 0 24 74 31 25 75 32 25 76 28 25 77 31 26 78 28 26 79 27 26 80 33 27 81 1 27 82 29 27 83 34 28 84 30 28 85 0 28 86 35 29 87 36 29 88 32 29 89 35 30 90 32 30 91 31 30 92 37 31 93 1 31 94 33 31 95 38 32 96 34 32 97 0 32 98 39 33 99 40 33 100 36 33 101 39 34 102 36 34 103 35 34 104 41 35 105 1 35 106 37 35 107 42 36 108 38 36 109 0 36 110 43 37 111 44 37 112 40 37 113 43 38 114 40 38 115 39 38 116 45 39 117 1 39 118 41 39 119 46 40 120 42 40 121 0 40 122 47 41 123 48 41 124 44 41 125 47 42 126 44 42 127 43 42 128 49 43 129 1 43 130 45 43 131 50 44 132 46 44 133 0 44 134 51 45 135 52 45 136 48 45 137 51 46 138 48 46 139 47 46 140 53 47 141 1 47 142 49 47 143 54 48 144 50 48 145 0 48 146 55 49 147 56 49 148 52 49 149 55 50 150 52 50 151 51 50 152 57 51 153 1 51 154 53 51 155 58 52 156 54 52 157 0 52 158 59 53 159 60 53 160 56 53 161 59 54 162 56 54 163 55 54 164 61 55 165 1 55 166 57 55 167 62 56 168 58 56 169 0 56 170 63 57 171 64 57 172 60 57 173 63 58 174 60 58 175 59 58 176 65 59 177 1 59 178 61 59 179 66 60 180 62 60 181 0 60 182 67 61 183 68 61 184 64 61 185 67 62 186 64 62 187 63 62 188 69 63 189 1 63 190 65 63 191 70 64 192 66 64 193 0 64 194 71 65 195 72 65 196 68 65 197 71 66 198 68 66 199 67 66 200 73 67 201 1 67 202 69 67 203 74 68 204 70 68 205 0 68 206 75 69 207 76 69 208 72 69 209 75 70 210 72 70 211 71 70 212 77 71 213 1 71 214 73 71 215 78 72 216 74 72 217 0 72 218 79 73 219 80 73 220 76 73 221 79 74 222 76 74 223 75 74 224 81 75 225 1 75 226 77 75 227 82 76 228 78 76 229 0 76 230 83 77 231 84 77 232 80 77 233 83 78 234 80 78 235 79 78 236 85 79 237 1 79 238 81 79 239 86 80 240 82 80 241 0 80 242 87 81 243 88 81 244 84 81 245 87 82 246 84 82 247 83 82 248 89 83 249 1 83 250 85 83 251 90 84 252 86 84 253 0 84 254 91 85 255 92 85 256 88 85 257 91 86 258 88 86 259 87 86 260 93 87 261 1 87 262 89 87 263 94 88 264 90 88 265 0 88 266 95 89 267 96 89 268 92 89 269 95 90 270 92 90 271 91 90 272 97 91 273 1 91 274 93 91 275 98 92 276 94 92 277 0 92 278 99 93 279 100 93 280 96 93 281 99 94 282 96 94 283 95 94 284 101 95 285 1 95 286 97 95 287 102 96 288 98 96 289 0 96 290 103 97 291 104 97 292 100 97 293 103 98 294 100 98 295 99 98 296 105 99 297 1 99 298 101 99 299 106 100 300 102 100 301 0 100 302 107 101 303 108 101 304 104 101 305 107 102 306 104 102 307 103 102 308 109 103 309 1 103 310 105 103 311 110 104 312 106 104 313 0 104 314 111 105 315 112 105 316 108 105 317 111 106 318 108 106 319 107 106 320 113 107 321 1 107 322 109 107 323 114 108 324 110 108 325 0 108 326 115 109 327 116 109 328 112 109 329 115 110 330 112 110 331 111 110 332 117 111 333 1 111 334 113 111 335 118 112 336 114 112 337 0 112 338 119 113 339 120 113 340 116 113 341 119 114 342 116 114 343 115 114 344 121 115 345 1 115 346 117 115 347 122 116 348 118 116 349 0 116 350 123 117 351 124 117 352 120 117 353 123 118 354 120 118 355 119 118 356 125 119 357 1 119 358 121 119 359 126 120 360 122 120 361 0 120 362 127 121 363 128 121 364 124 121 365 127 122 366 124 122 367 123 122 368 129 123 369 1 123 370 125 123 371 130 124 372 126 124 373 0 124 374 131 125 375 132 125 376 128 125 377 131 126 378 128 126 379 127 126 380 133 127 381 1 127 382 129 127 383 134 128 384 130 128 385 0 128 386 135 129 387 136 129 388 132 129 389 135 130 390 132 130 391 131 130 392 137 131 393 1 131 394 133 131 395 138 132 396 134 132 397 0 132 398 139 133 399 140 133 400 136 133 401 139 134 402 136 134 403 135 134 404 141 135 405 1 135 406 137 135 407 142 136 408 138 136 409 0 136 410 143 137 411 144 137 412 140 137 413 143 138 414 140 138 415 139 138 416 145 139 417 1 139 418 141 139 419 2 140 420 142 140 421 0 140 422 3 141 423 4 141 424 144 141 425 3 142 426 144 142 427 143 142 428 5 143 429 1 143 430 145 143 431 148 144 432 149 144 433 147 144 434 148 145 435 147 145 436 146 145 437 150 146 438 151 146 439 149 146 440 150 147 441 149 147 442 148 147 443 152 148 444 153 148 445 151 148 446 152 149 447 151 149 448 150 149 449 146 150 450 147 150 451 153 150 452 146 151 453 153 151 454 152 151 455 149 152 456 151 152 457 153 152 458 149 153 459 153 153 460 147 153 461 150 154 462 148 154 463 146 154 464 150 155 465 146 155 466 152 155 467 156 156 468 157 156 469 155 156 470 156 157 471 155 157 472 154 157 473 158 158 474 159 158 475 157 158 476 158 159 477 157 159 478 156 159 479 160 160 480 161 160 481 159 160 482 160 161 483 159 161 484 158 161 485 154 162 486 155 162 487 161 162 488 154 163 489 161 163 490 160 163 491 157 164 492 159 164 493 161 164 494 157 165 495 161 165 496 155 165 497 158 166 498 156 166 499 154 166 500 158 167 501 154 167 502 160 167 503 325 168 504 324 168 505 162 168 506 169 169 507 381 169 508 380 169 509 169 170 510 380 170 511 165 170 512 171 171 513 163 171 514 167 171 515 326 172 516 325 172 517 162 172 518 173 173 519 382 173 520 381 173 521 173 174 522 381 174 523 169 174 524 175 175 525 163 175 526 171 175 527 327 176 528 326 176 529 162 176 530 177 177 531 383 177 532 382 177 533 177 178 534 382 178 535 173 178 536 179 179 537 163 179 538 175 179 539 328 180 540 327 180 541 162 180 542 181 181 543 384 181 544 383 181 545 181 182 546 383 182 547 177 182 548 183 183 549 163 183 550 179 183 551 329 184 552 328 184 553 162 184 554 185 185 555 385 185 556 384 185 557 185 186 558 384 186 559 181 186 560 187 187 561 163 187 562 183 187 563 330 188 564 329 188 565 162 188 566 189 189 567 386 189 568 385 189 569 189 190 570 385 190 571 185 190 572 191 191 573 163 191 574 187 191 575 331 192 576 330 192 577 162 192 578 193 193 579 387 193 580 386 193 581 193 194 582 386 194 583 189 194 584 195 195 585 163 195 586 191 195 587 332 196 588 331 196 589 162 196 590 197 197 591 388 197 592 387 197 593 197 198 594 387 198 595 193 198 596 199 199 597 163 199 598 195 199 599 333 200 600 332 200 601 162 200 602 201 201 603 389 201 604 388 201 605 201 202 606 388 202 607 197 202 608 203 203 609 163 203 610 199 203 611 334 204 612 333 204 613 162 204 614 205 205 615 390 205 616 389 205 617 205 206 618 389 206 619 201 206 620 207 207 621 163 207 622 203 207 623 335 208 624 334 208 625 162 208 626 209 209 627 391 209 628 390 209 629 209 210 630 390 210 631 205 210 632 211 211 633 163 211 634 207 211 635 336 212 636 335 212 637 162 212 638 346 213 639 394 213 640 393 213 641 346 214 642 393 214 643 344 214 644 215 215 645 163 215 646 211 215 647 337 216 648 336 216 649 162 216 650 395 217 651 419 217 652 418 217 653 395 218 654 418 218 655 394 218 656 219 219 657 163 219 658 215 219 659 338 220 660 337 220 661 162 220 662 350 221 663 396 221 664 395 221 665 350 222 666 395 222 667 348 222 668 223 223 669 163 223 670 219 223 671 339 224 672 338 224 673 162 224 674 397 225 675 421 225 676 420 225 677 397 226 678 420 226 679 396 226 680 227 227 681 163 227 682 223 227 683 340 228 684 339 228 685 162 228 686 354 229 687 398 229 688 397 229 689 354 230 690 397 230 691 352 230 692 231 231 693 163 231 694 227 231 695 341 232 696 340 232 697 162 232 698 399 233 699 423 233 700 422 233 701 399 234 702 422 234 703 398 234 704 235 235 705 163 235 706 231 235 707 342 236 708 341 236 709 162 236 710 358 237 711 400 237 712 399 237 713 358 238 714 399 238 715 356 238 716 239 239 717 163 239 718 235 239 719 343 240 720 342 240 721 162 240 722 360 241 723 401 241 724 400 241 725 360 242 726 400 242 727 358 242 728 243 243 729 163 243 730 239 243 731 324 244 732 343 244 733 162 244 734 165 245 735 380 245 736 392 245 737 165 246 738 392 246 739 241 246 740 167 247 741 163 247 742 243 247 743 164 248 744 244 248 745 245 248 746 164 249 747 245 249 748 168 249 749 168 250 750 245 250 751 246 250 752 168 251 753 246 251 754 172 251 755 172 252 756 246 252 757 247 252 758 172 253 759 247 253 760 176 253 761 176 254 762 247 254 763 248 254 764 176 255 765 248 255 766 180 255 767 180 256 768 248 256 769 249 256 770 180 257 771 249 257 772 184 257 773 184 258 774 249 258 775 250 258 776 184 259 777 250 259 778 188 259 779 188 260 780 250 260 781 251 260 782 188 261 783 251 261 784 192 261 785 192 262 786 251 262 787 252 262 788 192 263 789 252 263 790 196 263 791 196 264 792 252 264 793 253 264 794 196 265 795 253 265 796 200 265 797 200 266 798 253 266 799 254 266 800 200 267 801 254 267 802 204 267 803 204 268 804 254 268 805 255 268 806 204 269 807 255 269 808 208 269 809 208 270 810 255 270 811 256 270 812 208 271 813 256 271 814 212 271 815 212 272 816 256 272 817 257 272 818 212 273 819 257 273 820 216 273 821 216 274 822 257 274 823 258 274 824 216 275 825 258 275 826 220 275 827 220 276 828 258 276 829 259 276 830 220 277 831 259 277 832 224 277 833 224 278 834 259 278 835 260 278 836 224 279 837 260 279 838 228 279 839 228 280 840 260 280 841 261 280 842 228 281 843 261 281 844 232 281 845 232 282 846 261 282 847 262 282 848 232 283 849 262 283 850 236 283 851 236 284 852 262 284 853 263 284 854 236 285 855 263 285 856 240 285 857 240 286 858 263 286 859 244 286 860 240 287 861 244 287 862 164 287 863 244 288 864 264 288 865 265 288 866 244 289 867 265 289 868 245 289 869 245 290 870 265 290 871 266 290 872 245 291 873 266 291 874 246 291 875 246 292 876 266 292 877 267 292 878 246 293 879 267 293 880 247 293 881 247 294 882 267 294 883 268 294 884 247 295 885 268 295 886 248 295 887 248 296 888 268 296 889 269 296 890 248 297 891 269 297 892 249 297 893 249 298 894 269 298 895 270 298 896 249 299 897 270 299 898 250 299 899 250 300 900 270 300 901 271 300 902 250 301 903 271 301 904 251 301 905 251 302 906 271 302 907 272 302 908 251 303 909 272 303 910 252 303 911 252 304 912 272 304 913 273 304 914 252 305 915 273 305 916 253 305 917 253 306 918 273 306 919 274 306 920 253 307 921 274 307 922 254 307 923 254 308 924 274 308 925 275 308 926 254 309 927 275 309 928 255 309 929 255 310 930 275 310 931 276 310 932 255 311 933 276 311 934 256 311 935 256 312 936 276 312 937 277 312 938 256 313 939 277 313 940 257 313 941 257 314 942 277 314 943 278 314 944 257 315 945 278 315 946 258 315 947 258 316 948 278 316 949 279 316 950 258 317 951 279 317 952 259 317 953 259 318 954 279 318 955 280 318 956 259 319 957 280 319 958 260 319 959 260 320 960 280 320 961 281 320 962 260 321 963 281 321 964 261 321 965 261 322 966 281 322 967 282 322 968 261 323 969 282 323 970 262 323 971 262 324 972 282 324 973 283 324 974 262 325 975 283 325 976 263 325 977 263 326 978 283 326 979 264 326 980 263 327 981 264 327 982 244 327 983 264 328 984 284 328 985 285 328 986 264 329 987 285 329 988 265 329 989 265 330 990 285 330 991 286 330 992 265 331 993 286 331 994 266 331 995 266 332 996 286 332 997 287 332 998 266 333 999 287 333 1000 267 333 1001 267 334 1002 287 334 1003 288 334 1004 267 335 1005 288 335 1006 268 335 1007 268 336 1008 288 336 1009 289 336 1010 268 337 1011 289 337 1012 269 337 1013 269 338 1014 289 338 1015 290 338 1016 269 339 1017 290 339 1018 270 339 1019 270 340 1020 290 340 1021 291 340 1022 270 341 1023 291 341 1024 271 341 1025 271 342 1026 291 342 1027 292 342 1028 271 343 1029 292 343 1030 272 343 1031 272 344 1032 292 344 1033 293 344 1034 272 345 1035 293 345 1036 273 345 1037 273 346 1038 293 346 1039 294 346 1040 273 347 1041 294 347 1042 274 347 1043 274 348 1044 294 348 1045 295 348 1046 274 349 1047 295 349 1048 275 349 1049 275 350 1050 295 350 1051 296 350 1052 275 351 1053 296 351 1054 276 351 1055 276 352 1056 296 352 1057 297 352 1058 276 353 1059 297 353 1060 277 353 1061 277 354 1062 297 354 1063 298 354 1064 277 355 1065 298 355 1066 278 355 1067 278 356 1068 298 356 1069 299 356 1070 278 357 1071 299 357 1072 279 357 1073 279 358 1074 299 358 1075 300 358 1076 279 359 1077 300 359 1078 280 359 1079 280 360 1080 300 360 1081 301 360 1082 280 361 1083 301 361 1084 281 361 1085 281 362 1086 301 362 1087 302 362 1088 281 363 1089 302 363 1090 282 363 1091 282 364 1092 302 364 1093 303 364 1094 282 365 1095 303 365 1096 283 365 1097 283 366 1098 303 366 1099 284 366 1100 283 367 1101 284 367 1102 264 367 1103 284 368 1104 304 368 1105 305 368 1106 284 369 1107 305 369 1108 285 369 1109 285 370 1110 305 370 1111 306 370 1112 285 371 1113 306 371 1114 286 371 1115 286 372 1116 306 372 1117 307 372 1118 286 373 1119 307 373 1120 287 373 1121 287 374 1122 307 374 1123 308 374 1124 287 375 1125 308 375 1126 288 375 1127 288 376 1128 308 376 1129 309 376 1130 288 377 1131 309 377 1132 289 377 1133 289 378 1134 309 378 1135 310 378 1136 289 379 1137 310 379 1138 290 379 1139 290 380 1140 310 380 1141 311 380 1142 290 381 1143 311 381 1144 291 381 1145 291 382 1146 311 382 1147 312 382 1148 291 383 1149 312 383 1150 292 383 1151 292 384 1152 312 384 1153 313 384 1154 292 385 1155 313 385 1156 293 385 1157 293 386 1158 313 386 1159 314 386 1160 293 387 1161 314 387 1162 294 387 1163 294 388 1164 314 388 1165 315 388 1166 294 389 1167 315 389 1168 295 389 1169 295 390 1170 315 390 1171 316 390 1172 295 391 1173 316 391 1174 296 391 1175 296 392 1176 316 392 1177 317 392 1178 296 393 1179 317 393 1180 297 393 1181 297 394 1182 317 394 1183 318 394 1184 297 395 1185 318 395 1186 298 395 1187 298 396 1188 318 396 1189 319 396 1190 298 397 1191 319 397 1192 299 397 1193 299 398 1194 319 398 1195 320 398 1196 299 399 1197 320 399 1198 300 399 1199 300 400 1200 320 400 1201 321 400 1202 300 401 1203 321 401 1204 301 401 1205 301 402 1206 321 402 1207 322 402 1208 301 403 1209 322 403 1210 302 403 1211 302 404 1212 322 404 1213 323 404 1214 302 405 1215 323 405 1216 303 405 1217 303 406 1218 323 406 1219 304 406 1220 303 407 1221 304 407 1222 284 407 1223 304 408 1224 324 408 1225 325 408 1226 304 409 1227 325 409 1228 305 409 1229 305 410 1230 325 410 1231 326 410 1232 305 411 1233 326 411 1234 306 411 1235 306 412 1236 326 412 1237 327 412 1238 306 413 1239 327 413 1240 307 413 1241 307 414 1242 327 414 1243 328 414 1244 307 415 1245 328 415 1246 308 415 1247 308 416 1248 328 416 1249 329 416 1250 308 417 1251 329 417 1252 309 417 1253 309 418 1254 329 418 1255 330 418 1256 309 419 1257 330 419 1258 310 419 1259 310 420 1260 330 420 1261 331 420 1262 310 421 1263 331 421 1264 311 421 1265 311 422 1266 331 422 1267 332 422 1268 311 423 1269 332 423 1270 312 423 1271 312 424 1272 332 424 1273 333 424 1274 312 425 1275 333 425 1276 313 425 1277 313 426 1278 333 426 1279 334 426 1280 313 427 1281 334 427 1282 314 427 1283 314 428 1284 334 428 1285 335 428 1286 314 429 1287 335 429 1288 315 429 1289 315 430 1290 335 430 1291 336 430 1292 315 431 1293 336 431 1294 316 431 1295 316 432 1296 336 432 1297 337 432 1298 316 433 1299 337 433 1300 317 433 1301 317 434 1302 337 434 1303 338 434 1304 317 435 1305 338 435 1306 318 435 1307 318 436 1308 338 436 1309 339 436 1310 318 437 1311 339 437 1312 319 437 1313 319 438 1314 339 438 1315 340 438 1316 319 439 1317 340 439 1318 320 439 1319 320 440 1320 340 440 1321 341 440 1322 320 441 1323 341 441 1324 321 441 1325 321 442 1326 341 442 1327 342 442 1328 321 443 1329 342 443 1330 322 443 1331 322 444 1332 342 444 1333 343 444 1334 322 445 1335 343 445 1336 323 445 1337 323 446 1338 343 446 1339 324 446 1340 323 447 1341 324 447 1342 304 447 1343 450 448 1344 451 448 1345 372 448 1346 450 449 1347 372 449 1348 371 449 1349 210 450 1350 345 450 1351 347 450 1352 210 451 1353 347 451 1354 214 451 1355 448 452 1356 413 452 1357 344 452 1358 448 453 1359 344 453 1360 393 453 1361 452 454 1362 373 454 1363 372 454 1364 452 455 1365 372 455 1366 451 455 1367 214 456 1368 347 456 1369 349 456 1370 214 457 1371 349 457 1372 218 457 1373 453 458 1374 374 458 1375 373 458 1376 453 459 1377 373 459 1378 452 459 1379 218 460 1380 349 460 1381 351 460 1382 218 461 1383 351 461 1384 222 461 1385 454 462 1386 375 462 1387 374 462 1388 454 463 1389 374 463 1390 453 463 1391 222 464 1392 351 464 1393 353 464 1394 222 465 1395 353 465 1396 226 465 1397 455 466 1398 376 466 1399 375 466 1400 455 467 1401 375 467 1402 454 467 1403 226 468 1404 353 468 1405 355 468 1406 226 469 1407 355 469 1408 230 469 1409 456 470 1410 377 470 1411 376 470 1412 456 471 1413 376 471 1414 455 471 1415 230 472 1416 355 472 1417 357 472 1418 230 473 1419 357 473 1420 234 473 1421 457 474 1422 378 474 1423 377 474 1424 457 475 1425 377 475 1426 456 475 1427 234 476 1428 357 476 1429 359 476 1430 234 477 1431 359 477 1432 238 477 1433 458 478 1434 379 478 1435 378 478 1436 458 479 1437 378 479 1438 457 479 1439 449 480 1440 416 480 1441 425 480 1442 449 481 1443 425 481 1444 401 481 1445 238 482 1446 359 482 1447 361 482 1448 238 483 1449 361 483 1450 242 483 1451 213 484 1452 363 484 1453 362 484 1454 213 485 1455 362 485 1456 209 485 1457 344 486 1458 428 486 1459 429 486 1460 344 487 1461 429 487 1462 346 487 1463 413 488 1464 426 488 1465 428 488 1466 413 489 1467 428 489 1468 344 489 1469 217 490 1470 364 490 1471 363 490 1472 217 491 1473 363 491 1474 213 491 1475 346 492 1476 429 492 1477 430 492 1478 346 493 1479 430 493 1480 348 493 1481 221 494 1482 365 494 1483 364 494 1484 221 495 1485 364 495 1486 217 495 1487 348 496 1488 430 496 1489 431 496 1490 348 497 1491 431 497 1492 350 497 1493 225 498 1494 366 498 1495 365 498 1496 225 499 1497 365 499 1498 221 499 1499 350 500 1500 431 500 1501 432 500 1502 350 501 1503 432 501 1504 352 501 1505 229 502 1506 367 502 1507 366 502 1508 229 503 1509 366 503 1510 225 503 1511 352 504 1512 432 504 1513 433 504 1514 352 505 1515 433 505 1516 354 505 1517 233 506 1518 368 506 1519 367 506 1520 233 507 1521 367 507 1522 229 507 1523 354 508 1524 433 508 1525 434 508 1526 354 509 1527 434 509 1528 356 509 1529 237 510 1530 369 510 1531 368 510 1532 237 511 1533 368 511 1534 233 511 1535 356 512 1536 434 512 1537 435 512 1538 356 513 1539 435 513 1540 358 513 1541 241 514 1542 370 514 1543 369 514 1544 241 515 1545 369 515 1546 237 515 1547 360 516 1548 436 516 1549 427 516 1550 360 517 1551 427 517 1552 415 517 1553 358 518 1554 435 518 1555 436 518 1556 358 519 1557 436 519 1558 360 519 1559 438 520 1560 403 520 1561 402 520 1562 438 521 1563 402 521 1564 437 521 1565 439 522 1566 404 522 1567 403 522 1568 439 523 1569 403 523 1570 438 523 1571 440 524 1572 405 524 1573 404 524 1574 440 525 1575 404 525 1576 439 525 1577 441 526 1578 406 526 1579 405 526 1580 441 527 1581 405 527 1582 440 527 1583 442 528 1584 407 528 1585 406 528 1586 442 529 1587 406 529 1588 441 529 1589 443 530 1590 408 530 1591 407 530 1592 443 531 1593 407 531 1594 442 531 1595 444 532 1596 409 532 1597 408 532 1598 444 533 1599 408 533 1600 443 533 1601 445 534 1602 410 534 1603 409 534 1604 445 535 1605 409 535 1606 444 535 1607 446 536 1608 411 536 1609 410 536 1610 446 537 1611 410 537 1612 445 537 1613 447 538 1614 412 538 1615 411 538 1616 447 539 1617 411 539 1618 446 539 1619 448 540 1620 414 540 1621 412 540 1622 448 541 1623 412 541 1624 447 541 1625 394 542 1626 418 542 1627 417 542 1628 394 543 1629 417 543 1630 393 543 1631 394 544 1632 346 544 1633 348 544 1634 394 545 1635 348 545 1636 395 545 1637 396 546 1638 420 546 1639 419 546 1640 396 547 1641 419 547 1642 395 547 1643 396 548 1644 350 548 1645 352 548 1646 396 549 1647 352 549 1648 397 549 1649 398 550 1650 422 550 1651 421 550 1652 398 551 1653 421 551 1654 397 551 1655 398 552 1656 354 552 1657 356 552 1658 398 553 1659 356 553 1660 399 553 1661 400 554 1662 424 554 1663 423 554 1664 400 555 1665 423 555 1666 399 555 1667 401 556 1668 425 556 1669 424 556 1670 401 557 1671 424 557 1672 400 557 1673 437 558 1674 402 558 1675 416 558 1676 437 559 1677 416 559 1678 449 559 1679 393 560 1680 417 560 1681 414 560 1682 393 561 1683 414 561 1684 448 561 1685 401 562 1686 360 562 1687 415 562 1688 401 563 1689 415 563 1690 449 563 1691 347 564 1692 418 564 1693 419 564 1694 347 565 1695 419 565 1696 349 565 1697 351 566 1698 420 566 1699 421 566 1700 351 567 1701 421 567 1702 353 567 1703 355 568 1704 422 568 1705 423 568 1706 355 569 1707 423 569 1708 357 569 1709 209 570 1710 413 570 1711 448 570 1712 209 571 1713 448 571 1714 391 571 1715 361 572 1716 425 572 1717 416 572 1718 361 573 1719 416 573 1720 242 573 1721 372 574 1722 462 574 1723 461 574 1724 372 575 1725 461 575 1726 371 575 1727 362 576 1728 426 576 1729 413 576 1730 362 577 1731 413 577 1732 209 577 1733 371 578 1734 461 578 1735 459 578 1736 371 579 1737 459 579 1738 450 579 1739 373 580 1740 463 580 1741 462 580 1742 373 581 1743 462 581 1744 372 581 1745 374 582 1746 464 582 1747 463 582 1748 374 583 1749 463 583 1750 373 583 1751 375 584 1752 465 584 1753 464 584 1754 375 585 1755 464 585 1756 374 585 1757 376 586 1758 466 586 1759 465 586 1760 376 587 1761 465 587 1762 375 587 1763 377 588 1764 467 588 1765 466 588 1766 377 589 1767 466 589 1768 376 589 1769 378 590 1770 468 590 1771 467 590 1772 378 591 1773 467 591 1774 377 591 1775 458 592 1776 460 592 1777 469 592 1778 458 593 1779 469 593 1780 379 593 1781 241 594 1782 415 594 1783 427 594 1784 241 595 1785 427 595 1786 370 595 1787 379 596 1788 469 596 1789 468 596 1790 379 597 1791 468 597 1792 378 597 1793 381 598 1794 438 598 1795 437 598 1796 381 599 1797 437 599 1798 380 599 1799 166 600 1800 402 600 1801 403 600 1802 166 601 1803 403 601 1804 170 601 1805 382 602 1806 439 602 1807 438 602 1808 382 603 1809 438 603 1810 381 603 1811 170 604 1812 403 604 1813 404 604 1814 170 605 1815 404 605 1816 174 605 1817 383 606 1818 440 606 1819 439 606 1820 383 607 1821 439 607 1822 382 607 1823 174 608 1824 404 608 1825 405 608 1826 174 609 1827 405 609 1828 178 609 1829 384 610 1830 441 610 1831 440 610 1832 384 611 1833 440 611 1834 383 611 1835 178 612 1836 405 612 1837 406 612 1838 178 613 1839 406 613 1840 182 613 1841 385 614 1842 442 614 1843 441 614 1844 385 615 1845 441 615 1846 384 615 1847 182 616 1848 406 616 1849 407 616 1850 182 617 1851 407 617 1852 186 617 1853 386 618 1854 443 618 1855 442 618 1856 386 619 1857 442 619 1858 385 619 1859 186 620 1860 407 620 1861 408 620 1862 186 621 1863 408 621 1864 190 621 1865 387 622 1866 444 622 1867 443 622 1868 387 623 1869 443 623 1870 386 623 1871 190 624 1872 408 624 1873 409 624 1874 190 625 1875 409 625 1876 194 625 1877 388 626 1878 445 626 1879 444 626 1880 388 627 1881 444 627 1882 387 627 1883 194 628 1884 409 628 1885 410 628 1886 194 629 1887 410 629 1888 198 629 1889 389 630 1890 446 630 1891 445 630 1892 389 631 1893 445 631 1894 388 631 1895 198 632 1896 410 632 1897 411 632 1898 198 633 1899 411 633 1900 202 633 1901 390 634 1902 447 634 1903 446 634 1904 390 635 1905 446 635 1906 389 635 1907 202 636 1908 411 636 1909 412 636 1910 202 637 1911 412 637 1912 206 637 1913 391 638 1914 448 638 1915 447 638 1916 391 639 1917 447 639 1918 390 639 1919 206 640 1920 412 640 1921 414 640 1922 206 641 1923 414 641 1924 210 641 1925 345 642 1926 417 642 1927 418 642 1928 345 643 1929 418 643 1930 347 643 1931 349 644 1932 419 644 1933 420 644 1934 349 645 1935 420 645 1936 351 645 1937 353 646 1938 421 646 1939 422 646 1940 353 647 1941 422 647 1942 355 647 1943 357 648 1944 423 648 1945 424 648 1946 357 649 1947 424 649 1948 359 649 1949 359 650 1950 424 650 1951 425 650 1952 359 651 1953 425 651 1954 361 651 1955 380 652 1956 437 652 1957 449 652 1958 380 653 1959 449 653 1960 392 653 1961 242 654 1962 416 654 1963 402 654 1964 242 655 1965 402 655 1966 166 655 1967 210 656 1968 414 656 1969 417 656 1970 210 657 1971 417 657 1972 345 657 1973 392 658 1974 449 658 1975 415 658 1976 392 659 1977 415 659 1978 241 659 1979 363 660 1980 451 660 1981 450 660 1982 363 661 1983 450 661 1984 362 661 1985 364 662 1986 452 662 1987 451 662 1988 364 663 1989 451 663 1990 363 663 1991 365 664 1992 453 664 1993 452 664 1994 365 665 1995 452 665 1996 364 665 1997 366 666 1998 454 666 1999 453 666 2000 366 667 2001 453 667 2002 365 667 2003 367 668 2004 455 668 2005 454 668 2006 367 669 2007 454 669 2008 366 669 2009 368 670 2010 456 670 2011 455 670 2012 368 671 2013 455 671 2014 367 671 2015 369 672 2016 457 672 2017 456 672 2018 369 673 2019 456 673 2020 368 673 2021 370 674 2022 458 674 2023 457 674 2024 370 675 2025 457 675 2026 369 675 2027 428 676 2028 461 676 2029 462 676 2030 428 677 2031 462 677 2032 429 677 2033 426 678 2034 459 678 2035 461 678 2036 426 679 2037 461 679 2038 428 679 2039 362 680 2040 450 680 2041 459 680 2042 362 681 2043 459 681 2044 426 681 2045 429 682 2046 462 682 2047 463 682 2048 429 683 2049 463 683 2050 430 683 2051 430 684 2052 463 684 2053 464 684 2054 430 685 2055 464 685 2056 431 685 2057 431 686 2058 464 686 2059 465 686 2060 431 687 2061 465 687 2062 432 687 2063 432 688 2064 465 688 2065 466 688 2066 432 689 2067 466 689 2068 433 689 2069 433 690 2070 466 690 2071 467 690 2072 433 691 2073 467 691 2074 434 691 2075 434 692 2076 467 692 2077 468 692 2078 434 693 2079 468 693 2080 435 693 2081 427 694 2082 460 694 2083 458 694 2084 427 695 2085 458 695 2086 370 695 2087 436 696 2088 469 696 2089 460 696 2090 436 697 2091 460 697 2092 427 697 2093 435 698 2094 468 698 2095 469 698 2096 435 699 2097 469 699 2098 436 699 2099</p>
                </triangles>
            </mesh>
        </geometry>
    </library_geometries>
    <library_visual_scenes>
        <visual_scene id="VisualSceneNode" name="VisualScene">
            <node id="node" name="node">
                <instance_geometry url="#shape0-lib"/>
            </node>
        </visual_scene>
    </library_visual_scenes>
    <scene>
        <instance_visual_scene url="#VisualSceneNode"/>
    </scene>
</COLLADA>
