<?xml version="1.0" encoding="UTF-8"?>
<COLLADA xmlns="http://www.collada.org/2005/11/COLLADASchema" version="1.4.1">
    <asset>
        <contributor>
            <author>VCGLab</author>
            <authoring_tool>VCGLib | MeshLab</authoring_tool>
        </contributor>
        <created>Mon Jan 20 16:06:36 2025 GMT</created>
        <modified>Mon Jan 20 16:06:36 2025 GMT</modified>
        <up_axis>Y_UP</up_axis>
    </asset>
    <library_geometries>
        <geometry id="shape0-lib" name="shape0">
            <mesh>
                <source id="shape0-lib-positions" name="position">
                    <float_array id="shape0-lib-positions-array" count="24">48.6566 48.8642 4.76648 58.1896 48.8642 4.76648 48.6566 58.3971 4.76648 58.1896 58.3971 4.76648 48.6566 58.3971 -4.76648 58.1896 58.3971 -4.76648 48.6566 48.8642 -4.76648 58.1896 48.8642 -4.76648</float_array>
                    <technique_common>
                        <accessor count="8" source="#shape0-lib-positions-array" stride="3">
                            <param name="X" type="float"/>
                            <param name="Y" type="float"/>
                            <param name="Z" type="float"/>
                        </accessor>
                    </technique_common>
                </source>
                <source id="shape0-lib-normals" name="normal">
                    <float_array id="shape0-lib-normals-array" count="36">0 0 1 0 0 1 0 1 0 0 1 0 0 0 -1 0 0 -1 0 -1 0 0 -1 0 1 0 0 1 0 0 -1 0 0 -1 0 0</float_array>
                    <technique_common>
                        <accessor count="12" source="#shape0-lib-normals-array" stride="3">
                            <param name="X" type="float"/>
                            <param name="Y" type="float"/>
                            <param name="Z" type="float"/>
                        </accessor>
                    </technique_common>
                </source>
                <source id="shape0-lib-map" name="map">
                    <float_array id="shape0-lib-map-array" count="72">0.375 0 0.625 0 0.625 0.25 0.375 0 0.625 0.25 0.375 0.25 0.375 0.25 0.625 0.25 0.625 0.5 0.375 0.25 0.625 0.5 0.375 0.5 0.375 0.5 0.625 0.5 0.625 0.75 0.375 0.5 0.625 0.75 0.375 0.75 0.375 0.75 0.625 0.75 0.625 1 0.375 0.75 0.625 1 0.375 1 0.625 0 0.875 0 0.875 0.25 0.625 0 0.875 0.25 0.625 0.25 0.125 0 0.375 0 0.375 0.25 0.125 0 0.375 0.25 0.125 0.25</float_array>
                    <technique_common>
                        <accessor count="36" source="#shape0-lib-map-array" stride="2">
                            <param name="U" type="float"/>
                            <param name="V" type="float"/>
                        </accessor>
                    </technique_common>
                </source>
                <vertices id="shape0-lib-vertices">
                    <input semantic="POSITION" source="#shape0-lib-positions"/>
                </vertices>
                <triangles count="12">
                    <input offset="0" semantic="VERTEX" source="#shape0-lib-vertices"/>
                    <input offset="1" semantic="NORMAL" source="#shape0-lib-normals"/>
                    <input offset="2" semantic="TEXCOORD" source="#shape0-lib-map"/>
                    <p>0 0 0 1 0 1 3 0 2 0 1 3 3 1 4 2 1 5 2 2 6 3 2 7 5 2 8 2 3 9 5 3 10 4 3 11 4 4 12 5 4 13 7 4 14 4 5 15 7 5 16 6 5 17 6 6 18 7 6 19 1 6 20 6 7 21 1 7 22 0 7 23 1 8 24 7 8 25 5 8 26 1 9 27 5 9 28 3 9 29 6 10 30 0 10 31 2 10 32 6 11 33 2 11 34 4 11 35</p>
                </triangles>
            </mesh>
        </geometry>
    </library_geometries>
    <library_visual_scenes>
        <visual_scene id="VisualSceneNode" name="VisualScene">
            <node id="node" name="node">
                <instance_geometry url="#shape0-lib"/>
            </node>
        </visual_scene>
    </library_visual_scenes>
    <scene>
        <instance_visual_scene url="#VisualSceneNode"/>
    </scene>
</COLLADA>
